<svg width="49" height="48" viewBox="0 0 49 48" fill="none" xmlns="http://www.w3.org/2000/svg">
<g id="circle-phone-flip 1">
<g clip-path="url(#clip0_239_9)">
<rect x="0.5" width="48" height="48" rx="24" fill="white"/>
<path id="Vector" d="M24.5 48C11.266 48 0.5 37.234 0.5 24C0.5 10.766 11.266 0 24.5 0C37.734 0 48.5 10.766 48.5 24C48.5 37.234 37.734 48 24.5 48ZM24.5 2C12.37 2 2.5 11.87 2.5 24C2.5 36.13 12.37 46 24.5 46C36.63 46 46.5 36.13 46.5 24C46.5 11.87 36.63 2 24.5 2ZM18.724 38C16.832 38 15.074 37.284 13.776 35.982L10.084 32.292L17.374 25.002L21.46 29.088C25.208 27.502 27.874 24.832 29.578 20.954L25.5 16.874L32.79 9.584L36.482 13.276C37.782 14.572 38.498 16.33 38.498 18.222C38.498 26.908 27.41 37.998 18.722 37.998L18.724 38ZM12.914 32.292L15.192 34.57C16.112 35.492 17.366 36 18.724 36C26.366 36 36.5 25.866 36.5 18.224C36.5 16.866 35.992 15.612 35.07 14.692L32.792 12.412L28.33 16.874L31.936 20.48L31.69 21.094C29.726 25.986 26.324 29.386 21.578 31.196L20.972 31.426L17.374 27.828L12.912 32.29L12.914 32.292Z" fill="black"/>
</g>
</g>
<defs>
<clipPath id="clip0_239_9">
<rect x="0.5" width="48" height="48" rx="24" fill="white"/>
</clipPath>
</defs>
</svg>
