<svg xmlns="http://www.w3.org/2000/svg" width="720px" height="280px"><title>السلام عليكم</title><path fill="#e7ac3b" d="M100.1,87.1c7-4.3,14.1-8.6,21.1-13.1c3.9-2.5,7.6-5.4,11.4-8c1.6-1.1,2.3-1.9,0.3-3.6c-6.8-5.9-4.7-15,4-17.9 c3.3-1.1,5.3,0.1,5.4,3.6c0.1,2.3-0.1,4.6-0.5,6.9c-0.3,2-0.3,3.7,1.4,4.9c2.7,2,1.8,4.2,0.5,6.6c-0.8,1.5-1.6,2.1-3,0.8 c-2.5-2.6-4-0.4-5.6,1.2C125,78.3,112.5,85.2,100.1,87.1zM138.2,54.2c-0.3-1.5-0.2-3.4-2.6-3.3c-1.3,0.1-3.1,0.7-2.7,2.2 c0.4,1.8,2.2,3,4,3.4C138.4,56.9,138,55.3,138.2,54.2zM114.2,234.1c-1.6,4.9-3.9,6.1-7.8,2.8c-4.8-4.1-6.3-2.6-9.2,2.2c-5.2,8.7-13.7,13.8-23.1,17.3 c-7.8,3-16.1,4.8-24.5,5.2c7.6-3.5,15.2-6.9,22.8-10.4c11.2-5.2,22.1-10.8,28-22.7c1.1-2.3,3.5-4,5.3-5.8c3.1-3.1,5.3-1.1,7.4,1.4 C114.9,227.1,113.7,230.7,114.2,234.1zM112.2,232.1c-1.3-2.4-1.8-4.8-4.7-4.1c-0.4,0.1-1.1,0.2-0.8,0.9 C107.5,231,109.2,231.9,112.2,232.1L112.2,232.1zM129,133c3.9,1.8,7.8,3.6,11.6,5.5c3,1.5,5.6,3.8,4.2,7.5s-3.9,5.5-8.2,4c-4.7-1.6-9.6-2.8-13.9-5.4 c-3-1.5-4.9-4.5-5.1-7.9c4.4,2.1,8.1,4.1,12,5.6c3.9,1.5,7.7,3.6,12.8,3.5c-2.6-3.4-6.1-4.2-9.1-5.8c-2-1.1-4.2-1.9-6.2-3.1 c-2.8-1.8-3.6-3.9-0.2-6L129,133zM129,133l-2-2c4.3-3.5,9.8-5,15.3-4.2c1.6,0.2,3,0.8,3.4,2.5c0,0.8-0.3,1.6-0.9,2.1c-1.4,1.4-2.2-0.2-3.3-0.7 C137.9,128.8,131.4,130.2,129,133zM173.9,49.7c0.3-2.8,2.1-5.2,4.7-6.3c18.9-8,38.3-14.5,58-21.7c-0.2,3.5-1.9,5.1-4.2,6 c-19.1,7.5-38.2,15-57.4,22.3C174.8,50.1,174.5,49.8,173.9,49.7zM198.9,156.6c-8.9-2.4-16.9-1.5-24.7-2c-3.3-0.2-3.4-0.7-2.1-3.6c3.4-7.4,8.6-10.8,16.9-10.1 c5.9,0.5,12,0.3,17.9,1.4c4.8,0.9,5.7,2.7,3.3,6.9c-5.5,9.5-12,17.9-23.5,20.8c-4.5,1.1-8.9,2.5-13.5,3.3 C180.6,166.6,190.2,163.4,198.9,156.6zM225.2,230.9c-1.7,3.6-3.2,6.9-4.8,10.2c-0.5,1-1.2,0.8-2,0.2c-1.2-0.9-2.5-1.6-3.8-2.4 c-2.1-1.3-4.2-3.8-6.3-3.8c-2.5,0-2.6,3.6-3.9,5.6s-2.2,2-3.9,0.8c-2.2-1.7-4.6-3.3-7-4.8c-2.7-1.6-3-3.3-1.6-6.1 c4.1-8.8,4.1-9,12.2-2.9c3.2,2.4,5,2.4,6.1-1.6c1.3-4.5,3.7-4.7,7.1-1.9C219.9,226.4,223.1,227.9,225.2,230.9zM227.6,139.4c-1.7-4.8-3.2-9.3-4.9-13.7c-0.9-2.3-1.7-4.1-5.2-4.2c-4.7-0.1-6.1-4.5-3.5-8.5 c2-3.1,4.1-2.8,6.6-0.7c4.6,3.9,5.9,9.4,8,15.8c1-3.8,1.6-6.8,2.4-9.6c0.5-2.1,1.2-4.1,2.2-6.1c1.5-2.7,2.8-6.2,7-4.5 c3.3,1.4,3.8,5.2,1.5,9.3c-5.5-4.1-5.9-4-8,3c-1.3,4.4-2.3,9-3.4,13.5C229.8,135.8,229.4,137.7,227.6,139.4zM268.5,70.5c0-5.6,3.6-7,7.2-8.4C305.1,51.1,334.4,40,363.7,29c10.4-3.9,20.9-7.6,31.4-11.3 c1-0.4,2.1-0.6,3.5-0.9c-0.7,4.2-3.6,5.2-6.6,6.4c-37.1,14.2-74.3,28.5-111.4,42.7L268.5,70.5zM28,132.5c-2.9,10.8-5.7,21.2-8.4,31.6c-1.6,5.8-2.2,11.8-1.6,17.8c0.4,3.7,1,7.6,5.1,9c4.5,1.5,7-1.9,9.4-4.9 c1.2-1.8,2.6-3.5,4-5.1c-0.2,8.9-1.9,17.6-8.5,24c-5.6,5.4-13.9,2.9-16.1-4.7c-2.9-10.4-1.6-20.8,0.5-31.1 c2.4-11.6,7.2-22.4,12.6-32.9C25.6,134.6,26.6,133.3,28,132.5zM280.8,236.4c-5.7,7.4-13.3,9-21.6,8.4c-4.1-0.3-6.1-2.9-6.2-7c-0.1-4.5,1.8-8.4,4-12.1 c1.4-2.3,1.6-4.1-0.8-5.9c-3.2-2.5-3-5.7-1.1-8.9c1.9-3.5,4.7-6.5,8-8.8c1.3-0.8,2.7-1.5,4,0c1.1,1.1,1.3,2.8,0.4,4.1 c-0.6,1.3-1.3,2.9-3.3,2c-2.3-1-3.9,0-4.9,2c-0.7,1.2-0.4,2.8,0.8,3.5c0,0,0,0,0,0c1.6,1.6,4.1,1.8,6,0.5c1.5-1,3-2.1,4.5-3.1 c0.9-0.6,1.8-2,2.9-0.9c1,1,0.2,2.3-0.4,3.2c-1.1,1.7-2.3,3.2-3.6,4.7c-3.4,3.6-7.4,6.7-10.1,10.9c-1.6,2.4-4.6,4.9-2.8,7.9 c1.7,2.8,5.3,2.1,8.3,2.1c3.5-0.1,7-0.6,10.3-1.5L280.8,236.4zM291.9,31.9c1.2-5,1.9-10.2,5-14.5c1.4-1.9,3.2-3.9,5.8-2.2c2.3,1.5,3.8,3.8,2.9,6.8c-0.6,1.8-1.4,3.9-3.6,1.1 c-2.3-3-4-1.6-4.8,1.1c-1.6,5.1-2.8,10.3-4.1,15.4c-0.6,2.3-0.8,4.9-3.5,7c-1-4.9-2.6-9.7-4.6-14.2c-1-2.2-1.8-4-5-3.7 c-2.6,0.1-4.9-1.8-5.3-4.4c-0.2-2.2,1.5-4.9,3.8-6s4,0.9,5.5,2.4c3.5,3.4,4.8,7.9,6.1,12.4c-0.1,0.8-0.1,1.8,0.9,1.6 C292.5,34.3,292,33,291.9,31.9zM33.8,74c5.7-7,1.3-13.2-1.5-19.6c-0.9-2-2.2-2.5-4.3-2.5c-2.6,0-4.8-1.9-5.3-4.4c-0.3-2.1,1.4-4.9,3.7-6.1 c2.6-1.4,4.4,0.8,6,2.4C36,47.7,36.8,52.9,39,59c1.2-4.5,2.1-7.9,2.9-11.4c0.4-2.5,1.4-4.8,2.9-6.8c1.3-1.7,2.8-3.8,5.3-2.6 c2.6,1.1,4.1,3.8,3.6,6.5c-0.4,2-1,5-3.9,1.5c-1.9-2.4-3.4-1.5-4.4,0.8c-2.5,5.8-3.5,12.1-5.1,18.2c-0.4,1.6,0.6,2.3,1.8,3.1 c1.8,1.2,3.5,2.5,5,4.1c3.8,3.8,2.4,9-2.7,10.6c-10.6,3.2-10.6,3.2-8.3,13.9c2.1,9.8,3.2,19.6,1.4,29.6c-1-12.8-4.5-25.2-5.8-37.9 c-0.3-3.2,0.9-6.4,3.3-8.6c0.3-0.1,0.7-0.2,0.9-0.4c0.9-1.6,5-0.6,3.6-3.1c-1.2-2.2-3.2,0.8-4.9,1.4c-0.1,0-0.3,0-0.4,0 C33.2,76.6,34.1,75.2,33.8,74zM362.2,150.6c11.1-8,23.4-14.2,34-23.3c-0.5-0.5-1-1-1.6-1.4c-3.2-2.2-5.8-4.7-4.6-9c1.2-4.3,4.3-7.7,8.5-9.2 c3-1.2,4.9,0.1,5.4,3.2c0.3,2.3,0.1,4.7-0.6,6.9c-0.5,2-0.5,3.9,1.4,5.4c2.6,2,1.6,4.3,0.4,6.6c-0.7,1.3-1.5,1.9-2.6,0.8 c-2.7-2.9-4.3-0.7-6,1.1C387.1,141.7,375.3,147.2,362.2,150.6zM397.2,114c-1.2,0.4-3.1,0.9-2.9,2.2c0.3,2,2.4,3.1,4.2,3.6 s1.5-1.3,1.4-2.3C399.8,115.8,399.5,114,397.2,114L397.2,114zM391,209c-2.3,12.7-9.8,22.4-18.8,31.1c-15.6,15.1-34.1,21.4-55.8,17.9c-17.9-2.9-30.1-17.6-31.4-37.9 c-0.8-12.5-0.1-25,3.4-37.1c1.1-3.7,1-5.9-3.5-7.3c-5.5-1.7-10.3-5.3-14.5-9.5c-1.5-1.5-2.6-3.4-5.2-4.4c-0.5,8.5-0.5,16.8-2.3,24.9 c-1,5.2-3.2,10.2-6.4,14.4c-4.9,6.3-11.5,8.1-19.1,7.1c-6.8-0.9-10-5.9-12.3-11.7c-0.2-0.6-0.4-1.1-0.7-2.2c-3.7,3-5.9,6.8-9.3,9.4 c-11.5,9-25.6,9.5-37.3,0.6c-6.3-4.9-12.3-10.2-18.4-15.3c-1.6-1.3-3-3-5.7-3.6c2.2,6.7,4.5,13.1,2.3,20.1 c-2.9,9.1-8.3,15.9-17.4,19.2c-2.6,0.9-2.9,1.9-2.3,4.2c1.2,4.6,0.5,9.2-0.9,13.8c-1,3.3-2.9,4.2-6,2.4c-6.2-3.8-11.5-8.5-13.8-15.8 c-0.7-2.1-0.3-4.4-1.6-6.3c-1.4-7.3-2.3-8.1-9.4-8c-12.3,0.2-23.2,4-32,12.8c-11.1,11.2-21.9,22.7-32.9,34 c-5.3,5.5-11.2,9.8-18.9,11.5h-5.1c-3.7-0.9-7.1-2.9-9.6-5.7c-2.8-3-4.1-7-6.3-10.4v-17c3.2-6.7,4.5-14.1,8-20.6 c1.4-2.6,2.4-5.4,4.5-7.8c1.4,1.5,0.4,2.6,0,3.7c-3,9.8-6.5,19.6-8,29.8c-0.8,5.2-0.6,10.1,3.9,13.7s9.5,2.3,14.1,0.2 c9.3-4.3,15.7-12.2,22.7-19.2c9.8-9.9,18.7-20.8,30.3-28.9s24.1-11.2,38.5-10.6c6.1,0.2,9,3.1,12.8,5.8c7,5,18.2,3.9,24-2.7 c2.1-2.4,1.9-4.7,0.4-7.3c-3.4-5.7-7.8-10.8-13.1-15c-13.4-10.7-26.9-21.3-40.4-31.9c-2.6-2-3.4-4-3.4-7.4 c0.1-13,6.4-21.2,17.5-27.2c28-15.3,56.6-29.4,87.2-38.7c3.8-1.2,7.8-1.8,11.8-1.6c5.1,0.2,6.9,2.2,6.5,7.2c-0.5,5-2.2,9.8-4.9,14 c-6.8,11.4-17.8,19.6-24,31.5c1.1-8.7,6-15.4,11-22c3-4,6.4-7.7,9.4-11.7s2.1-5.5-2.9-5.7c-4-0.2-8,0.4-11.8,1.7 c-31.5,11.3-62,24.7-90.2,42.9c-1.8,1.1-3.7,2.2-5.1,4.5c3.7,2,7.2,3.9,10.9,5.8c21.6,11,41.3,24.9,60.1,40c4.3,3.6,9,6.8,14.1,9.4 c12.9,6.4,25.9,4.3,36.2-5.8c3.2-3.2,5.9-7,10.6-9.9c0,3.2,0,5.7,0,8.1c-0.1,4.9,2.1,7.8,7,8.6c6,1.1,11.6-0.4,16.8-3.1 c3.2-1.6,3.4-4.8,3.4-7.8c-0.1-13.6-0.2-27.3-0.7-41c-0.7-20.8-1.5-41.6-2.5-62.4c-0.6-15.1-2.1-30.2-4.6-45.2 c-1.1-6.7-0.4-13.6,1.9-19.9c3,2,3,5,3.6,7.5c4.6,18.9,5.5,38.2,6.6,57.4c1.1,19.8,1.5,39.6,4.4,59.2c2.3,15,15,21.7,26.2,25.9 c2,0.7,3.1-0.5,4-2c3.9-6.6,8.9-12.4,14.3-18.7c-6.5-2.4-12.5-5.9-17.8-10.2c-13.5-11.3-15.7-33.2-4.5-45.1 c7.2-7.7,17.1-9,26.8-10.7c4.8-0.8,9.5-1.5,14.3-2.2c7.3-0.9,14.1-4.2,19.4-9.3c0.9-0.9,2.2-2.2,3.5-1.3c1.7,1.2,0.3,2.9-0.3,4 c-5.8,9.9-13.9,17-25.2,19.7c-9.6,2.4-19.5,3.9-29.2,6.2c-11.5,2.8-12.9,6.4-6.2,16.1c12.1,17.7,28.9,24.7,49.5,13 c8.2-4.7,16.5-9.4,24.8-13.9c0.9-0.5,1.9-1.9,3.1-0.7s0,2.2-0.4,3.2c-2.8,5.7-5.8,10.9-11.7,14.3c-10.4,5.9-20.4,12.6-30.5,19 c-9.1,5.6-17.2,12.7-23.8,21.1c12,1.2,23.6,1.5,35.1,1.8c10.5,0.3,21,0.6,31.4,1.8c6.2,0.7,11.7,2.8,16,7.3c1.8,1.9,3.1,1.9,5.4,0.4 c6-3.8,12.4-6.9,19.1-9.4c2.6-1,2.8-2.2,1.7-4.3c-1.7-3.3-2.6-6.8-2.8-10.5c-0.8-11.8,8-17.2,19.4-13.1c6.5,2.3,11.9,6.7,16.5,11.8 s1.5,16.5-5.2,18.5c-3.6,1.1-7.2,2.5-10.9,3.4c-3.2,0.8-5.6,1.9-5.6,5.7c0.1,0.9-0.4,1.7-1.2,2c-1,0.2-1.5-0.6-1.7-1.4 c-0.7-3.2-2.6-2.3-4.5-1.4c-7.1,3.3-14.1,6.6-21.3,9.7c-1.9,0.8-2.2,2.1-2.1,3.9c0.1,4.5,0,9,0,13.5L391,209zM289.9,203.8 c-0.1,23.4,8.6,34.6,27.6,38.8c29.2,6.4,55.9-11.9,68-29.4c3.2-4.7,3.5-9.9,1.9-15.3c-1-3.4-2.4-4-5.2-1.6 c-6.1,5.2-11.8,10.7-17.5,16.4c-7.7,7.6-14.5,16-22.8,23c-9.1,7.7-20,6-26.6-3.9c-4.4-6.7-4.6-14.1-3.7-21.6 c1.1-8.6,4.5-16.6,8.2-24.4c1.9-3.9,0.8-4.9-3.1-4.7c-5.5,0.3-11-0.6-16.4-1.6c-3.4-0.6-4.8,0.5-5.8,3.5 C291.9,190.7,289.8,198.5,289.9,203.8zM376.6,186.7c-2.5-1.3-5.2-2.2-8-2.7c-14-2.3-28.1-1.9-42.3-1.8c-2.2,0-2.8,1.1-3.4,2.8 c-2,6.5-4.2,12.9-5.9,19.5c-1.3,4.8-2.2,9.7-1.3,14.8c1.1,6,4.7,9,10.7,8.8c6.4-0.2,11.2-3.6,15.6-7.8 C353.7,209.4,364.2,197.6,376.6,186.7L376.6,186.7zM414.8,152.7c1.4,3.5,2.6,6.5,3.8,9.5c0.4,1.1,0.9,2.1,2.5,1.3 c3.4-1.5,7.2-2,10.4-4.9C426.3,155.3,421.1,153.1,414.8,152.7L414.8,152.7zM122.8,222.3c1.5,4.5,3.7,8.2,9.2,10.3 C130,227.3,127.3,224,122.8,222.3L122.8,222.3zM391,209l1.1-3.2c15-5.4,29.6-11.6,42.5-21.1c5.7-4.2,7.8-11.4,13-16.2c3.8-3.5,6.6-3.6,9.1,0.9 c2.3,4.1,1.6,8.5-0.5,12.4c-1.6,3-4.3,1.2-6.5,0.1c-2.1-0.9-3.7-4.1-5.6-3.3c-1.7,0.6-2.4,3.7-3.7,5.6c-6.1,9.2-15.4,13.9-25.3,17.6 c-6.4,2.4-13.1,3.6-19.7,5.1C393.8,207.3,392.1,207.6,391,209zM454.9,177c-0.5-2.7-1.4-4.3-3.8-4.4c-0.5,0-1.4,0.9-1.4,1.1 C450.5,175.9,452.3,176.4,454.9,177zM401.9,49.8c0.4-3,2.3-5.5,5.1-6.5c7.1-2.8,14.2-5.6,21.3-8.2c11.9-4.4,23.9-8.8,36-13.2c0.5,3.5-1.5,5-3.7,5.9 c-19.1,7.5-38.3,15-57.4,22.3C402.9,50.1,402.5,49.9,401.9,49.8zM444.6,73.3c1.2-4.6,2.2-8.6,3.5-12.5c0.5-1.8,1.3-3.4,2.4-4.9c1.2-1.7,2.7-3.9,5.3-2.7 c2.2,0.9,3.6,3.1,3.5,5.5c0,1.3,0.2,2.8-1.1,3.7c-1.8,1.3-2.1-0.8-3-1.6c-2.1-1.9-3.2-0.8-4.1,1.2c-2.1,4.7-2.9,9.9-4.1,14.8 c-0.7,2.7-0.9,5.6-3.8,8.2c-1-4.7-2.5-9.3-4.3-13.7c-1.1-2.4-1.8-4.9-5.5-4.5c-2.5,0.3-4.7-2.1-5-4.1c-0.4-2.3,1.4-4.7,3.5-6.1 c2.5-1.6,4,0.6,5.5,2C441.5,62.5,442.5,67.9,444.6,73.3zM465.6,178.4c-1-2.3-1.7-4.7-1.9-7.2c-2.1-15.6-11.1-27.5-21.4-38.6c-15-16.1-31.4-30.8-45.6-47.6 c-6.2-7.4-12-15.1-17.8-22.8c-3.2-4.2-2.2-9.2-1.4-14c0.3-1.8,1.4-2,2.9-1c6.9,4.9,13.6,10.2,20,15.7c0.6,0.5,1.6,1.2,1.1,2 c-0.7,1.2-2.1,0.5-3.2,0.7c-1.4-0.9-3-1.4-4.5-0.4c-0.6,0.4,0.5,1.3,1.2,1.7c12,14,25.6,26.6,38.3,40c8.4,8.8,16.9,17.4,24.2,27.2 C467.4,147.7,470.4,162.3,465.6,178.4L465.6,178.4zM465.6,178.5c5.9-6.3,8.6-14.2,9.4-22.4c2.1-23.3,0.6-46.6-1.5-69.8c-1.2-13.1-3.1-26.1-4.7-39.1 c-0.7-5.9,0.6-11.5,2.6-17.3c2.6,2.5,2.9,5.6,3.6,8.4c5.5,22.4,7.3,45.3,8.3,68.2c0.8,17.3,0.8,34.6,2.7,51.8c0.3,2.8,1,5.6,1.8,8.2 c2.6,8.4,6.2,10.4,14.9,9.2c8.1-1.1,15.7-4.8,21.7-10.4c3.9-3.6,7.9-7,12.6-11.2c0.2,3.3,0.5,5.5,0.5,7.8c0.2,5.7,2.6,8.9,8.2,10.2 c9.4,2.3,17.5-0.5,24.3-6.9c4-3.7,7.3-8.1,11-12.4c2.2,2.3,1.6,3.4,1.4,4.4c-1.3,5,0.3,9,4.4,11.8s8.3,1.6,12.2-0.8 c5.2-3.3,8.9-7.9,12.2-13c0.7-1.1,1.6-2,2.6-3.3c2,1.9,1.5,4.2,1.8,6.1c1.2,6.7,4.3,10,10.9,11c7.2,1.1,15.1-5.3,15.1-12.6 c0-20-1.6-39.9-2.9-59.8c-1.3-19.8-2.2-39.5-4.6-59.2c-0.6-5.3,1.9-9.6,4.8-15c4.7,11.8,9.5,22.6,12.3,34.4c-3.4,0.2-4-3.1-6.9-3.6 c0.4,6.9,0.6,13.6,1.1,20.2c2,24.1,3.5,48.1,3.3,72.3c-0.1,8.9-1.1,17.6-5.5,25.5c-1.1,2.2-2.5,4.3-4,6.3 c-7.5,9.2-18.8,8.7-25.5-1.2c-1.5-2.2-2.7-4.6-4.1-7.1c-1.9,3.1-3.7,6.4-5.8,9.3c-3.4,4.7-8,7.6-14,7.4s-9.8-3.5-11.8-9.1 c-0.6-1.9-1.4-3.7-2.2-6.2c-3.6,4.2-6.8,8.4-11,11.5c-5.5,4.1-11.2,6.9-18.4,6.1c-7.8-0.9-12.4-4.9-13.4-12.8 c-0.1-1.1,0.4-2.6-0.8-3.2c-1.5-0.8-2.3,0.9-3.2,1.7c-2.7,2.5-5.3,5.1-7.9,7.6c-5.5,5.6-13,9-20.8,9.6c-9.4,0.7-14.5-2.6-18.3-11.3 c-1.7-3.9-1.9-8.1-3.6-12.7c-5.1,35.6-30.4,45-61,47.6c2.8-1.8,5.5-3.7,8.4-5.4c9.4-5.6,19-11.1,27.8-17.6 C458.3,188,463.2,184.3,465.6,178.5L465.6,178.5zM475.9,236.2c2.1-2.9,4.4-5.7,6.4-8.7c1.1-1.7,3.1-3.4,1.7-5.7s-3.6-0.5-5.9-0.6c-0.2-2.4,0.9-4.1,2.3-5.7 c1.2-1.4,3.2-2,5-1.5c2.1,0.6,2.5,2.4,2.6,4.3C488.4,227.1,482.1,231.8,475.9,236.2zM528.1,91.3c-0.3-0.8-0.1-1.8-1-2.2l1-3c0.9,0.5,0.8,1.4,1,2.2C529.1,89.3,529.1,90.4,528.1,91.3zM528.1,91.3c-0.4,3.3-1,6.6-1.2,9.9c-0.1,2-0.8,4.7,1.7,5.8s3.1-1.9,5.2-2.9c0.3,3.3-1,6.5-3.6,8.7 c-2.6,2.4-5.5,1.2-6.5-2.8c-1.7-7.3,0.5-14.1,3.2-20.8C528,89.5,527.8,90.5,528.1,91.3zM534.5,235.7c8.2-4.6,13.6-11,19-17.2c2.6-3,5.6-5.8,8.8-8.1c3.5-2.6,7.6-3.7,11.8-2.4 c5.2,1.6,8.7,0.1,11.2-4.6c0.6-0.9,1.3-1.7,2.1-2.4c1.4,1.6-1.1,4.9,2.6,4.9c3.2,0,2-2.3,2.4-3.8c0.2-0.6,0.5-1.3,0.8-1.8 c0.4-0.5,0.9-1,1.3-1.5c3.5,7.2,0.1,13.2-7.4,13.2c-1.5,0-3,0-4.3,1c-3.2,2.4-6.9,2.6-10.5,1.7c-4.9-1.2-8.8,0.4-12.6,3.1 c-5.6,3.9-9.8,9.5-15.1,13.8C542,233.7,539.6,236.9,534.5,235.7zM567.8,101.8c-1.2-2.4-0.8-5.4,1-7.4c2.5-3,1.9-5.7,0.6-8.6c-1-2.4-2-4.9-3.1-7.3c-0.9-2.1-1.8-3.6-4.7-3.4 c-2.6,0.1-4.9-1.8-5.3-4.4c-0.2-2.2,1.6-4.8,3.8-6c2.5-1.3,4,0.7,5.5,2.2c4,4,5,9.6,7,15.4c1.2-4.6,2.3-8.5,3.2-12.5 c0.4-2,1.2-3.8,2.3-5.5c1.4-1.8,2.8-4.3,5.6-3c2.6,1.2,3.8,3.6,3.5,6.6c-0.1,1.2-0.4,2.5-1.5,3s-1.6-0.9-2.2-1.6 c-2-2.3-3.4-1.3-4.4,1c-2.5,5.8-3.7,12-5,18.2c-0.3,1.6,0.4,2.2,1.8,3c1.8,1.2,3.5,2.5,5,4.1c3.9,4,2.6,9-2.8,10.5 c-10.7,3.1-10.5,3-8.3,13.6c2,9.7,3.2,19.5,1.6,29.5c-1.8-3.1-1-6.6-1.6-9.9c-1.4-8-2.5-16.1-4.1-24.1c-0.9-4.8-0.1-8.9,3.4-12.4 l5-2.3C570.7,97.1,569.5,100.6,567.8,101.8zM571.6,32.4c1.4,2.8,2.3,5.8,2.5,8.9c0.1,2.2,0.7,4.3,1.7,6.2c0.9,1.5,2.2,2.8,4,2c2.2-0.9,1.2-2.7,0.6-4.2 c-1-2.6-2.6-5.1-2.5-8c0-1.9-0.5-4,2-5.5c1.1,5.4,4.5,10.2,4,15.8c-0.2,3.2-0.8,7-4.4,8.3s-5.1-2.1-7.1-4.4 c-0.5,0.8-0.9,1.5-1.3,2.2c-1.4,2.8-3.4,4.7-6.7,4s-4.2-3.5-4.5-6.5c-0.3-3.4,0.3-6.7-1.8-10c-1.4-2.3,1.4-4.3,3.5-5.8 c1.3,3.5,1,7,1.2,10.5c0.2,2.2-0.3,5.3,3.1,5.1c3.1-0.2,5.1-2.5,4.9-5.8c-0.1-3-0.7-5.9-1-8.9C569.7,34.8,570.3,33.3,571.6,32.4zM610.1,88.2c-0.6,3.4-1.4,6.8-1.8,10.3c-0.3,2.4-0.9,5.3,1.9,6.6c2.6,1.2,3.3-2.1,5.6-3.4 c-0.2,3.9-1.4,6.9-3.9,9.2c-2.8,2.5-5.9,1-6.7-3.2c-0.9-4.7-0.2-9.3,1-13.8c0.7-2.7,1.9-5.3,2.9-7.9L610.1,88.2zM612,4.3c-0.2,2.7-1.9,4.3-4.3,5.3c-41.3,15.9-82.7,31.7-124,47.5c-0.5,0.1-1,0.2-1.5,0.1c0-4.3,2.8-6,6.2-7.4 c21.3-8.8,43-16.5,64.6-24.6c18.6-7,37.4-13.7,56-20.5C609.9,4.4,610.7,3.6,612,4.3zM646.2,220.7c1.9-2.5,3.9-4.9,5.6-7.5c1.1-1.7,3.2-3.4,1.8-5.8c-1.5-2.6-3.8-0.8-6-0.1 c-0.2-1.9,0.4-3.9,1.7-5.4c1.1-1.9,3.4-2.9,5.6-2.4c2.7,0.6,3,3.1,2.9,5.2c-0.5,7.6-5.1,12.4-10.5,16.7L646.2,220.7zM678.6,28.1c5.1,11.6,9.4,22.5,12.4,34.6c-3.5-0.7-4.2-3.1-6.9-4c0,1.4-0.1,2.7,0,3.9c2,29.5,4.3,59.1,6.1,88.6 c0.7,12.5-1.2,25-5.6,36.7c-0.3,0.9-0.4,2.4-2.8,2.7c0-9.5,0.2-18.9,0-28.2c-0.8-34.3-4-68.4-6.3-102.6c-0.4-5.3-0.9-10.6-1.5-15.9 C673.4,38.3,675.6,33.6,678.6,28.1zM709,3c-3,2.3-6.3,4.1-9.9,5.4c-15.8,6-31.5,12.3-47.2,18.4c-1.8,0.7-3.5,1.9-5.8,1.4c0.3-4.7,3.8-6.2,7.3-7.6 C671.1,14,688.9,7.5,706.5,1c0.6-0.2,1.3-0.2,1.5-1C710.2,0.4,708.5,2,709,3zM73.8,124c-0.9,3.8-1.8,7.5-2.6,11.3c-0.3,1.3-0.4,2.7-0.2,4c0.2,2-1,4.7,1.6,5.8c2.9,1.3,3.6-1.9,6.2-4.3 c-0.6,4.6-1.7,7.6-4,10c-2.6,2.6-5.6,1.5-6.7-2.2c-1.6-5-0.4-9.9,0.9-14.7C69.8,130.4,70.7,126.7,73.8,124z"/></svg>