<?xml version="1.0" encoding="UTF-8"?>
<svg version="1.1" xmlns="http://www.w3.org/2000/svg" width="1200" height="1200" viewBox="260 385 680 430" role="img" aria-labelledby="ramadan-svg-title ramadan-svg-desc" preserveAspectRatio="xMidYMid meet">
<title id="ramadan-svg-title">Ramadan Mubarak decorative calligraphy</title>
<desc id="ramadan-svg-desc">Decorative Ramadan Mubarak artwork with crescent and ornamental calligraphic styling.</desc>
<path d="M0 0 C0.99 0.495 0.99 0.495 2 1 C1.443125 1.64324219 0.88625 2.28648437 0.3125 2.94921875 C-11.82919723 17.32646497 -19.5907249 33.41074831 -26.5625 50.75 C-34.63126982 70.81563491 -34.63126982 70.81563491 -39 73 C-36.378868 61.8946776 -33.17352041 50.95719129 -30 40 C-30.66902344 40.71542969 -31.33804688 41.43085938 -32.02734375 42.16796875 C-56.67310104 67.97522802 -88.33453621 82.54330291 -122 93 C-121.11699219 93.67804688 -120.23398437 94.35609375 -119.32421875 95.0546875 C-112.44342592 100.37665608 -105.82263374 105.8214808 -99.44140625 111.73828125 C-97.34610687 113.67936659 -95.22295112 115.56984102 -93.0625 117.4375 C-89.59929554 120.44991545 -86.19931982 123.52734302 -82.8125 126.625 C-82.31306885 127.08060303 -81.8136377 127.53620605 -81.29907227 128.00561523 C-78.86527449 130.2385204 -76.82425275 132.24979806 -74.9140625 134.96484375 C-71.35634451 137.44952348 -70.43052715 137.12339536 -66.25390625 136.46484375 C-64.01695307 135.98502194 -61.78638329 135.47465139 -59.5625 134.9375 C-58.44294922 134.69322266 -57.32339844 134.44894531 -56.16992188 134.19726562 C-48.46329969 132.50826874 -48.46329969 132.50826874 -41 130 C-39.51393298 127.62992868 -38.43433381 125.60541537 -37.375 123.0625 C-34.07465107 115.41098349 -34.07465107 115.41098349 -30 113 C-17.09702243 136.47676435 -9.23210902 162.60076709 -1 188 C-0.59910156 187.09121094 -0.19820312 186.18242188 0.21484375 185.24609375 C9.07881293 165.50180802 22.8896432 139.09037739 43 129 C45.875 128.6875 45.875 128.6875 48 129 C50.85686439 131.85686439 49.93678521 139.23686075 50 143 C49.56005477 151.94623507 48.34109341 160.64726647 45 169 C44.67 169 44.34 169 44 169 C43.79503906 168.30132813 43.59007812 167.60265625 43.37890625 166.8828125 C42.97478516 165.51769531 42.97478516 165.51769531 42.5625 164.125 C42.29566406 163.22007812 42.02882813 162.31515625 41.75390625 161.3828125 C41.07386174 159.01724619 41.07386174 159.01724619 40 157 C35.43554868 157.86568237 32.97522826 160.52856573 29.8125 163.75 C28.95084229 164.62410522 28.95084229 164.62410522 28.07177734 165.51586914 C19.34660084 174.58356794 10.97627391 185.93406538 7 198 C8.33715525 203.12941523 11.16096748 206.90345044 15.71875 209.62109375 C22.69274978 212.55183413 31.13707554 212.05461756 38.1875 209.4375 C60.05686558 199.18399417 70.6290829 181.3004372 81.06567383 160.50537109 C81.54931396 159.54711426 82.0329541 158.58885742 82.53125 157.6015625 C82.95986328 156.73869629 83.38847656 155.87583008 83.83007812 154.98681641 C85 153 85 153 87 152 C86.94779297 152.97839844 86.94779297 152.97839844 86.89453125 153.9765625 C86.69892301 160.29191436 87.22984614 164.52896383 91.296875 169.625 C94.24180883 172.00256126 97.20972541 171.58096157 100.86328125 171.48828125 C106.40394695 170.62578659 111.47564727 168.29869196 116 165 C117.10671099 162.04760819 117.00871503 160.06464026 116.1796875 157.05859375 C115.97657959 156.31512695 115.77347168 155.57166016 115.56420898 154.80566406 C115.33677002 154.02416992 115.10933105 153.24267578 114.875 152.4375 C114.64562744 151.6340918 114.41625488 150.83068359 114.17993164 150.00292969 C111.37860845 140.48856879 107.97683083 130.11129503 100.125 123.625 C96.63001495 121.80760777 94.86737286 121.24334009 91 122 C86.67455338 125.9322242 84.47257354 131.78124847 82 137 C81.67 137 81.34 137 81 137 C81.49294168 122.16245532 85.27316973 108.69279775 93 96 C96.14550636 93.90299576 98.06295435 93.67075532 101.76953125 93.44140625 C106.11725429 94.53024057 108.93119299 97.35264789 111.3034668 101.0090332 C112.61100723 103.42823079 113.79115651 105.87536006 114.9375 108.375 C115.57655273 109.74374268 115.57655273 109.74374268 116.22851562 111.14013672 C122.41059114 124.82669412 126.57146899 139.19667497 129 154 C138.3281301 142.67789614 146.16443938 130.34717365 154.04882812 118.00439453 C155.72777045 115.41917627 157.45633253 112.88846951 159.234375 110.37109375 C163.71944395 104.27135933 163.71944395 104.27135933 164.640625 97.04296875 C163.61150379 94.23537757 163.61150379 94.23537757 162.22265625 91.6171875 C159.78982239 86.40952396 160.08004834 80.76810566 161.87109375 75.37890625 C162.8272499 73.18990408 163.85379225 71.09447601 165 69 C165.33 68.34 165.66 67.68 166 67 C168.43524884 67.43486586 169.8918672 67.91709819 171.875 69.4375 C177.50299775 73.57573364 184.2608607 73.9276548 191 73 C194.54721021 71.65467334 197.74750145 69.94131518 201 68 C201.66 67.67 202.32 67.34 203 67 C205.33168681 71.66337361 204.67739534 77.77285631 203.19921875 82.6328125 C198.46371618 93.0151171 189.73692457 99.30257077 180.78125 105.90625 C168.24796248 115.34142151 160.91801303 129.8693414 153.20019531 143.22827148 C150.21391286 148.37067803 147.11612695 153.38638932 143.80078125 158.32421875 C143.10557373 159.37617432 142.41036621 160.42812988 141.6940918 161.51196289 C140.34969794 163.53466095 138.98118115 165.54160385 137.58520508 167.52905273 C133.56422602 173.63525776 132.27216138 177.73845401 133.38330078 185.01318359 C133.58681152 185.99883301 133.79032227 186.98448242 134 188 C134.1841748 188.9482666 134.36834961 189.8965332 134.55810547 190.87353516 C135.17533952 193.77170022 135.88086193 196.63190802 136.625 199.5 C136.88571289 200.52375732 137.14642578 201.54751465 137.41503906 202.60229492 C141.51847236 219.49721864 141.51847236 219.49721864 149 235 C149.35078613 234.39865234 149.70157227 233.79730469 150.06298828 233.17773438 C160.20865885 215.78515625 170.35432943 198.39257812 180.5 181 C181.07733887 180.0102417 181.65467773 179.0204834 182.24951172 178.00073242 C183.41768459 175.99822019 184.58597911 173.99577892 185.75439453 171.9934082 C188.64901175 167.03241636 191.54159098 162.07025989 194.4296875 157.10546875 C196.72989006 153.15153646 199.03648878 149.20143835 201.34765625 145.25390625 C203.60341987 141.40054137 205.84360447 137.53888228 208.06842041 133.6676178 C209.46733263 131.23866349 210.87626582 128.81560935 212.28692627 126.39346313 C213.27680188 124.68655658 214.25460285 122.9726652 215.23193359 121.25854492 C220.43381771 112.35674816 226.33233362 103.15011393 235.8828125 98.5234375 C238.93284103 97.7693714 241.87428589 97.91754711 245 98 C245.2144997 106.27015524 245.07422976 113.96235969 243 122 C242.11248047 122.23783203 242.11248047 122.23783203 241.20703125 122.48046875 C240.41683594 122.71378906 239.62664062 122.94710937 238.8125 123.1875 C238.03519531 123.40792969 237.25789063 123.62835937 236.45703125 123.85546875 C209.38997843 136.46380973 187.92079862 190.54710886 174.89794922 215.40234375 C173.26771399 218.50464201 171.60573729 221.58885665 169.93482971 224.66940308 C168.59796198 227.13928278 167.27465721 229.61626895 165.95388794 232.0947876 C165.02184158 233.83423772 164.07444607 235.56543566 163.12670898 237.29638672 C162.56927002 238.35100098 162.01183105 239.40561523 161.4375 240.4921875 C160.69306641 241.87446533 160.69306641 241.87446533 159.93359375 243.28466797 C158.78095077 246.63709874 159.0320601 248.61516139 160 252 C163.72532868 255.62729372 166.96368005 257.13675613 172.125 257.3125 C179.92191304 257.18613188 186.46483973 253.55184328 192.0859375 248.2890625 C199.52802185 239.38893713 202.50173941 228.07924263 205 217 C205.33 217 205.66 217 206 217 C206.11214844 217.94359375 206.11214844 217.94359375 206.2265625 218.90625 C207.36745486 226.33323554 209.70746799 231.80093404 215.85546875 236.3828125 C220.77103283 239.18890297 225.43015396 239.91293834 231 239 C237.19433996 237.2234025 243.33848846 234.55529021 248 230 C248.98744356 227.14487858 249.4735473 225.11586333 249.78515625 222.19140625 C249.89202255 221.43642853 249.99888885 220.68145081 250.10899353 219.90359497 C250.33498875 218.29272025 250.54791979 216.67996694 250.7487793 215.06576538 C251.27657136 210.85436467 251.9095794 206.65873715 252.53515625 202.4609375 C252.7165062 201.22264442 252.7165062 201.22264442 252.90151978 199.95933533 C254.38397536 190.05088117 256.86229127 180.50820827 260 171 C260.35529785 169.92298828 260.35529785 169.92298828 260.71777344 168.82421875 C265.57356134 154.46334259 271.59028588 139.97812245 281 128 C281.60908203 127.14728516 281.60908203 127.14728516 282.23046875 126.27734375 C287.04656197 119.85040707 295.09893569 114.62866913 303 113 C311.02832967 112.17370432 318.1263553 112.46694983 325 117 C328.03174278 119.73596299 328.91083794 121.03143136 329.28515625 125.09765625 C328.935315 129.88520981 327.6259613 133.68558533 325.875 138.125 C325.52808105 139.01807861 325.18116211 139.91115723 324.82373047 140.83129883 C310.3925975 176.95807108 290.43777124 209.80600856 266 240 C264.665812 241.66598257 263.33225709 243.33247291 262 245 C263.80401362 246.80401362 266.37177627 246.29972264 268.8125 246.375 C286.22327742 246.18471828 298.37011984 234.06076236 309.87719727 222.40649414 C315.27216642 216.8512008 320.32463923 211.17953985 325 205 C325.53802246 204.29536621 326.07604492 203.59073242 326.63037109 202.86474609 C333.87862234 193.36321298 340.94167455 183.75023938 347.78564453 173.95385742 C351.57649244 168.54634326 355.53961065 163.30278098 359.59765625 158.09375 C363.46547064 153.11275975 367.22938495 148.05481003 371 143 C370.50242187 142.11054687 370.00484375 141.22109375 369.4921875 140.3046875 C366.77919206 134.29632587 368.33259225 128.3925501 370.5625 122.375 C371.036875 121.26125 371.51125 120.1475 372 119 C374.38198483 119.3841911 376.62799248 119.85459997 378.87890625 120.734375 C387.6123129 124.14410282 396.88392809 123.69601338 406 122 C405.73878898 133.37455271 401.02478252 141.14271769 393 149 C389.41431571 152.10176267 385.70267752 155.03972567 382 158 C373.32852226 165.01894676 365.73143554 172.02475261 359 181 C358.33355469 181.84046875 357.66710937 182.6809375 356.98046875 183.546875 C349.63664668 192.97530704 343.33097343 203.11833024 336.84716797 213.14501953 C329.05121797 225.19442996 321.14410827 236.92483781 312 248 C311.31421875 248.84046875 310.6284375 249.6809375 309.921875 250.546875 C300.3941208 261.77878036 286.69620261 273.57390548 271.49609375 275.28125 C264.48480571 275.53815216 259.18964817 273.9572841 253.25 270.3125 C250.27135236 267.25111215 248.68944536 263.88855581 247 260 C246.175 260.763125 245.35 261.52625 244.5 262.3125 C238.45835289 267.26974891 232.41320204 268.55119759 224.66796875 268.2734375 C216.28702175 267.41448246 211.28520412 263.46382945 206 257 C204.39427738 254.29481763 204 253.21405782 204 250 C203.34 250 202.68 250 202 250 C202.061875 251.11375 202.12375 252.2275 202.1875 253.375 C202.15402905 262.84728024 198.39346341 271.41975349 191.88671875 278.203125 C185.50117 284.17012517 180.42489307 286.54163879 171.64453125 286.3046875 C162.6708925 285.27079707 155.98555432 280.55111851 150 274 C148.12803957 271.42824128 146.48745283 268.81046364 145 266 C142.43529433 268.54618794 139.90133261 271.10403299 137.4140625 273.7265625 C116.82890896 295.28225954 84.39623571 316.03442356 54 318 C38.71809705 318.12104478 24.69915389 314.91273601 13.12109375 304.2734375 C4.26167577 294.54806137 1.64695465 281.8738396 2 269 C2.9403867 257.52949492 5.08943088 246.12621813 8 235 C7.45730469 234.54109375 6.91460937 234.0821875 6.35546875 233.609375 C5.28232422 232.68898438 5.28232422 232.68898438 4.1875 231.75 C3.47980469 231.14671875 2.77210938 230.5434375 2.04296875 229.921875 C0.07710971 228.07253915 -1.41349322 226.17329695 -3 224 C-3.25579834 224.65782471 -3.51159668 225.31564941 -3.77514648 225.9934082 C-11.04987939 244.62832772 -18.83532039 262.57237725 -28.5625 280.0625 C-29.08046143 281.0023877 -29.59842285 281.94227539 -30.13208008 282.91064453 C-39.44731006 299.3359021 -50.22579952 308.51060857 -68.51171875 313.71484375 C-76.7433795 315.68297206 -85.06391661 316.16628589 -93.5 316.125 C-94.29019531 316.12886719 -95.08039063 316.13273437 -95.89453125 316.13671875 C-101.33341063 316.12781715 -106.60366231 315.67993855 -112 315 C-108.68433026 312.78955351 -106.17999134 312.22080562 -102.3125 311.3125 C-82.06245725 306.16108669 -65.82202515 295.47016699 -51 281 C-49.94425781 280.03707031 -49.94425781 280.03707031 -48.8671875 279.0546875 C-33.17183219 264.37603537 -22.4274525 243.57125793 -13.94238281 224.11425781 C-13.11878696 222.2665013 -12.21780502 220.45363296 -11.3046875 218.6484375 C-7.40642527 209.61474 -10.30033041 202.38568837 -13.671875 193.671875 C-14.44061796 191.77827055 -15.21680314 189.88767217 -16 188 C-16.39123047 187.04673828 -16.78246094 186.09347656 -17.18554688 185.11132812 C-25.77822711 163.38093111 -25.77822711 163.38093111 -37 143 C-37.27263672 143.8353125 -37.27263672 143.8353125 -37.55078125 144.6875 C-39.24862185 149.84196991 -41.06422235 154.93010615 -43 160 C-43.33 160 -43.66 160 -44 160 C-44.05461827 157.49969695 -44.09396393 155.00062014 -44.125 152.5 C-44.14175781 151.80390625 -44.15851563 151.1078125 -44.17578125 150.390625 C-44.18222656 149.69453125 -44.18867188 148.9984375 -44.1953125 148.28125 C-44.20578613 147.65283203 -44.21625977 147.02441406 -44.22705078 146.37695312 C-43.89065011 142.85523601 -42.85802978 139.43211913 -42 136 C-48.93 139.3 -55.86 142.6 -63 146 C-60.46853874 150.25384595 -60.46853874 150.25384595 -57.91455078 154.49414062 C-45.42391193 175.91385582 -54.74772585 206.42287663 -60.453125 228.85546875 C-64.31262358 243.10541337 -70.01999446 256.91110495 -80 268 C-80.495 268.598125 -80.99 269.19625 -81.5 269.8125 C-91.03537542 280.49212047 -106.97026976 286.92078998 -121 288 C-121.63550781 288.0515625 -122.27101563 288.103125 -122.92578125 288.15625 C-139.14413424 288.86784136 -156.78065073 281.71794894 -168.9296875 271.11328125 C-179.54441002 260.27825316 -185.29057148 246.60603089 -185.3894043 231.55664062 C-185.19330054 220.50143469 -182.54113405 209.71290504 -180 199 C-179.80245117 198.16307617 -179.60490234 197.32615234 -179.40136719 196.46386719 C-175.52750529 180.60043617 -169.16563555 165.2460925 -154.984375 156.04296875 C-143.41030354 149.650313 -130.1981932 146.62419723 -117 147 C-117.25168945 146.23558594 -117.50337891 145.47117187 -117.76269531 144.68359375 C-130.78605226 105.00473169 -130.78605226 105.00473169 -130 94 C-130.61101562 94.18175781 -131.22203125 94.36351562 -131.8515625 94.55078125 C-138.90481007 96.4879408 -145.94798106 97.68507708 -153.1875 98.6875 C-154.11320801 98.81874268 -155.03891602 98.94998535 -155.99267578 99.08520508 C-161.71483058 99.84601592 -167.22813292 100.1238092 -173 100 C-167.82523738 95.78352675 -162.67453924 94.67157217 -156.1875 93.6875 C-136.26609419 90.39166336 -117.76350214 82.37483783 -100 73 C-99.28440918 72.62359375 -98.56881836 72.2471875 -97.83154297 71.859375 C-86.05676606 65.61694854 -74.92808793 58.62084126 -64 51 C-63.24686523 50.4750293 -62.49373047 49.95005859 -61.71777344 49.40917969 C-51.37821858 42.15869371 -41.45147267 34.49926643 -31.73535156 26.43554688 C-29.31911933 24.43675037 -26.87628718 22.47117312 -24.4375 20.5 C-19.23963744 16.2500759 -14.17496612 11.8512019 -9.12475586 7.42773438 C-6.15792977 4.83535442 -3.20597882 2.29801991 0 0 Z M-116 124 C-113.96192707 131.1178153 -111.59655258 138.06707281 -109 145 C-103.47322267 145.19392201 -99.24385089 144.7479503 -94 143 C-97.5897386 139.37066869 -101.2505899 135.83892202 -105 132.375 C-105.50789063 131.89804687 -106.01578125 131.42109375 -106.5390625 130.9296875 C-109.5095041 128.18774141 -112.45387995 125.9425437 -116 124 Z M277 152 C261.03598076 171.25620998 256.10405482 199.71153871 254 224 C259.76596126 219.46083901 264.18334778 214.36230105 268.71826172 208.60986328 C270.05511915 206.93077035 271.4171208 205.2748611 272.78515625 203.62109375 C285.59051179 188.04839775 296.39596406 171.1174696 307 154 C307.67546875 152.91976562 308.3509375 151.83953125 309.046875 150.7265625 C312.2036548 145.64985033 312.2036548 145.64985033 314 140 C299.29116672 135.09705557 286.88481535 141.41625831 277 152 Z M-97.4375 155.5 C-98.16904297 155.64308594 -98.90058594 155.78617188 -99.65429688 155.93359375 C-101.43735486 156.28321296 -103.21885203 156.64077688 -105 157 C-103.60325311 162.80752653 -102.12343297 168.58586729 -100.53515625 174.34375 C-100.27299316 175.29427246 -100.01083008 176.24479492 -99.74072266 177.22412109 C-99.21617715 179.11854349 -98.68863937 181.01214061 -98.15771484 182.90478516 C-95.8516038 191.23331935 -94.14813737 199.57679194 -92.875 208.125 C-92.70742188 209.24132812 -92.53984375 210.35765625 -92.3671875 211.5078125 C-92.18542969 212.74144531 -92.18542969 212.74144531 -92 214 C-92.66 214 -93.32 214 -94 214 C-94.10723389 213.34708984 -94.21446777 212.69417969 -94.32495117 212.02148438 C-95.19642868 208.12079517 -96.48581782 204.42689614 -97.80078125 200.65625 C-98.07842819 199.85070679 -98.35607513 199.04516357 -98.64213562 198.21520996 C-99.52921804 195.64241158 -100.42048373 193.07109153 -101.3125 190.5 C-102.47791024 187.13632628 -103.6405642 183.77171842 -104.80078125 180.40625 C-105.08116241 179.59583252 -105.36154358 178.78541504 -105.65042114 177.95043945 C-107.66203276 172.09701665 -109.48276952 166.21336632 -111.16479492 160.25585938 C-111.77080379 157.8298026 -111.77080379 157.8298026 -114 157 C-132.01354337 159.03613293 -150.96907681 163.72945213 -163.01953125 178.21484375 C-172.45067868 191.47797613 -180.00301503 206.12405327 -177.5 222.875 C-174.16865355 236.59749993 -166.08436535 248.53942901 -154.0625 255.9375 C-139.60522279 263.70531645 -124.33763893 264.65296452 -108.609375 259.99609375 C-87.9472234 252.5782834 -74.35710441 237.70336285 -65.125 218.25 C-64.39113146 216.5105538 -63.68130256 214.76069956 -63 213 C-62.68160156 212.18144531 -62.36320312 211.36289062 -62.03515625 210.51953125 C-58.38070807 199.92668377 -59.11874173 190.03854007 -64 180 C-66.11486316 176.16681053 -68.50630703 172.5958777 -71 169 C-71.63397705 168.03731201 -71.63397705 168.03731201 -72.28076172 167.05517578 C-73.66282678 164.9567395 -75.0773889 162.88361494 -76.5 160.8125 C-76.93836182 160.13993164 -77.37672363 159.46736328 -77.82836914 158.77441406 C-79.11619364 156.9512391 -80.29380737 155.44000039 -82 154 C-87.1887741 153.18715317 -92.32404348 154.46140224 -97.4375 155.5 Z M124 186 C123.443125 186.53109375 122.88625 187.0621875 122.3125 187.609375 C114.7197589 194.63779075 107.41953275 199.48018052 96.76953125 199.33984375 C91.29038344 198.66750826 85.99417952 196.48758477 82.484375 192.109375 C81.375 190.1875 81.375 190.1875 80 187 C78.40253328 189.39620008 77.25001695 191.4983986 76.08203125 194.09765625 C72.05047149 202.93260551 68.16634592 211.41386337 62 219 C61.39800781 219.77472656 60.79601562 220.54945313 60.17578125 221.34765625 C51.95603523 231.33473103 41.32247062 237.50077599 28.5 238.8125 C23.14980121 239.13487583 19.08930551 238.57305807 14 237 C12.68 237 11.36 237 10 237 C7.74736966 248.52461774 5.79761815 259.41260088 12 270 C19.98655408 280.78184801 29.39652453 287.11360303 42.5 289.6875 C75.26384834 292.6128436 107.03620079 273.43287952 131.94921875 253.984375 C135.70348803 250.47315521 135.70348803 250.47315521 138 246 C137.83298577 241.56936413 136.82538425 237.36238428 135.8359375 233.05078125 C135.56866852 231.8012114 135.30139954 230.55164154 135.02603149 229.26420593 C134.45710796 226.62583722 133.87944594 223.99157309 133.28466797 221.35913086 C132.5230185 217.98765495 131.78902358 214.61095752 131.0653286 211.23115253 C130.37294515 208.00236992 129.66732888 204.77652404 128.9609375 201.55078125 C128.6962265 200.33828201 128.4315155 199.12578278 128.15878296 197.87654114 C127.90577423 196.75495102 127.6527655 195.6333609 127.39208984 194.4777832 C127.17128754 193.48994339 126.95048523 192.50210358 126.72299194 191.48432922 C126.071289 188.78181878 126.071289 188.78181878 124 186 Z " fill="#925719" transform="translate(469,413)"/>
<path d="M0 0 C2.5 1.4375 2.5 1.4375 4 4 C4.00080971 10.2445207 2.34648258 16.5133345 0.9375 22.5625 C0.75123047 23.38041016 0.56496094 24.19832031 0.37304688 25.04101562 C-0.08020687 27.02835896 -0.53946212 29.01433201 -1 31 C-1.66 30.67 -2.32 30.34 -3 30 C-3 29.34 -3 28.68 -3 28 C-7.70962941 27.00849907 -10.06849433 26.64667026 -14.625 28.375 C-27.33238903 36.9524876 -29.74362186 57.39684103 -33.25057983 71.28808594 C-36.7611446 85.12926089 -40.25861721 98.88373174 -46 112 C-46.26844727 112.62616211 -46.53689453 113.25232422 -46.81347656 113.89746094 C-52.86243639 127.74734392 -62.62174559 143.03015179 -77.05053711 149.18139648 C-82.93463791 150.81448894 -89.08482871 150.50892667 -95.14996338 150.50076294 C-115.19317729 150.49488158 -135.13999298 151.69396163 -155.125 153.0625 C-156.52437111 153.15774808 -157.92374447 153.25296305 -159.32312012 153.34814453 C-167.21630527 153.88621607 -175.10857412 154.43671591 -183 155 C-183 154.34 -183 153.68 -183 153 C-178.60547621 152.24224284 -174.20949709 151.49325625 -169.8125 150.75 C-168.80867783 150.58010056 -168.80867783 150.58010056 -167.78457642 150.4067688 C-157.77291898 148.71948104 -147.75488836 147.25735472 -137.6875 145.9375 C-108.56008749 142.03654184 -79.82515449 134.42385313 -61 110 C-45.99217204 89.46864469 -39.32156975 65.49817595 -32.56542969 41.3112793 C-27.9513842 24.84943022 -22.93455692 11.76324397 -9 1 C-5.90826248 -0.54586876 -3.40570448 -0.29359521 0 0 Z " fill="#7D4B18" transform="translate(912,572)"/>
<path d="M0 0 C1 3 1 3 -0.06811523 6.04980469 C-2.43536748 9.66485285 -3.79274659 10.10865141 -7.91015625 11.203125 C-9.06451172 11.54472656 -10.21886719 11.88632812 -11.40820312 12.23828125 C-13.8440607 12.91266619 -16.28426291 13.57155081 -18.72851562 14.21484375 C-22.09911202 15.22847196 -24.99326675 16.16498298 -28 18 C-29.70071007 21.33506098 -29.85908548 24.30945231 -30 28 C-30.34051422 29.38394367 -30.71393411 30.76034809 -31.125 32.125 C-32.14380168 36.63683603 -33.15072582 41.69854837 -31 46 C-29.515 46.495 -29.515 46.495 -28 47 C-27.34 45.68 -26.68 44.36 -26 43 C-25.34 43 -24.68 43 -24 43 C-24.66 45.97 -25.32 48.94 -26 52 C-18.8183767 49.89054629 -11.72694326 47.59533816 -4.6484375 45.1640625 C-3.06187851 44.62221817 -3.06187851 44.62221817 -1.44326782 44.06942749 C3.03212069 42.54098372 7.50606842 41.00834521 11.97998047 39.47558594 C19.31363352 36.9646946 26.65255389 34.47024841 34 32 C34.85783081 31.71008179 35.71566162 31.42016357 36.5994873 31.12145996 C38.84124954 30.36845574 41.08716687 29.6301984 43.3359375 28.8984375 C44.54556152 28.50060059 45.75518555 28.10276367 47.00146484 27.69287109 C49.88806749 27.02586423 51.282008 26.93811413 54 28 C51.97850008 34.46717568 51.97850008 34.46717568 47.70507812 36.79418945 C46.32277874 37.26134159 44.93035072 37.69915582 43.53125 38.11328125 C42.7643132 38.3650412 41.9973764 38.61680115 41.2071991 38.87619019 C39.53080111 39.42326311 37.85035589 39.95805015 36.16659546 40.48202515 C32.50065534 41.62373229 28.85541447 42.82604639 25.20744324 44.0236969 C23.24509821 44.66699532 21.28169934 45.30708668 19.31733704 45.94419861 C7.3706048 49.82437423 -4.47061594 54.00029935 -16.3125 58.1875 C-17.40018677 58.57080475 -18.48787354 58.9541095 -19.60852051 59.34902954 C-34.5286835 64.61027243 -49.32664347 70.07650878 -63.984375 76.03125 C-67.94651528 77.62902933 -71.8633489 78.93695 -76 80 C-75.74927111 76.32264293 -75.56762486 74.53156698 -72.82470703 71.96289062 C-69.93810301 69.95698775 -67.25123548 68.64878992 -63.9921875 67.34375 C-62.83976563 66.87839844 -61.68734375 66.41304688 -60.5 65.93359375 C-58.705625 65.22396484 -58.705625 65.22396484 -56.875 64.5 C-55.70195313 64.02691406 -54.52890625 63.55382812 -53.3203125 63.06640625 C-46.26292697 60.2356105 -39.16502062 57.54577979 -32 55 C-32.639375 54.236875 -33.27875 53.47375 -33.9375 52.6875 C-37.20314617 48.43226408 -37.24688662 45.24902418 -37 40 C-36.51975171 37.24973301 -35.84375945 34.57162234 -35.125 31.875 C-34.95097656 31.18535156 -34.77695312 30.49570312 -34.59765625 29.78515625 C-33.63687034 26.06300047 -32.46181482 22.55012171 -31 19 C-52.55240207 26.21316428 -74.01584973 33.62228294 -95.3125 41.5625 C-96.2170694 41.89902588 -97.12163879 42.23555176 -98.05361938 42.58227539 C-107.06952383 45.94144594 -116.04647446 49.33024267 -124.87182617 53.16772461 C-127 54 -127 54 -129 54 C-128.67059074 50.15689193 -127.57600376 47.97684076 -124.78344727 45.31860352 C-120.82832469 42.39435751 -116.11332538 40.83633606 -111.5625 39.0625 C-110.37785156 38.59215332 -109.19320312 38.12180664 -107.97265625 37.63720703 C-103.99193924 36.06477437 -99.99721667 34.52990893 -96 33 C-95.31556824 32.73705139 -94.63113647 32.47410278 -93.92596436 32.20318604 C-68.70769039 22.52480551 -43.15074476 13.88867784 -17.50390625 5.421875 C-16.54509048 5.10479584 -15.58627472 4.78771667 -14.59840393 4.46102905 C-9.75694633 2.86989999 -4.91209891 1.35802855 0 0 Z " fill="#C4751B" transform="translate(823,442)"/>
<path d="M0 0 C-0.125 2.75 -0.125 2.75 -1 6 C-5.80301554 9.80413066 -11.2443765 11.99738631 -16.86328125 14.3515625 C-17.83124634 14.7631662 -18.79921143 15.1747699 -19.79650879 15.59884644 C-21.88031294 16.48439074 -23.9652424 17.36729083 -26.05117798 18.24780273 C-31.60230334 20.59194251 -37.14423824 22.95765261 -42.6875 25.3203125 C-43.81074173 25.79845398 -44.93398346 26.27659546 -46.09126282 26.76922607 C-56.69188378 31.28500335 -67.26236604 35.86758109 -77.8125 40.5 C-78.65241486 40.8687323 -79.49232971 41.2374646 -80.35769653 41.61737061 C-93.32962897 47.32002049 -106.22171692 53.17740151 -119.046875 59.203125 C-120.01173828 59.65623047 -120.97660156 60.10933594 -121.97070312 60.57617188 C-124.17362872 61.61158951 -126.37528409 62.64971094 -128.57617188 63.68945312 C-129.75244141 64.24052734 -130.92871094 64.79160156 -132.140625 65.359375 C-133.21344727 65.86436523 -134.28626953 66.36935547 -135.39160156 66.88964844 C-138 68 -138 68 -140 68 C-139.51133591 63.60202322 -138.31665392 61.8741577 -135 59 C-132.92820043 57.81264069 -130.80607799 56.71130521 -128.65625 55.671875 C-128.02828018 55.36623627 -127.40031036 55.06059753 -126.75331116 54.74569702 C-124.67332362 53.7375914 -122.58718468 52.74311045 -120.5 51.75 C-119.77271698 51.40096619 -119.04543396 51.05193237 -118.29611206 50.69232178 C-82.93780694 33.72382745 -46.75969166 18.30491409 -10.5 3.375 C-9.62875488 3.0147876 -8.75750977 2.6545752 -7.85986328 2.28344727 C-2.24803127 0 -2.24803127 0 0 0 Z " fill="#C3751B" transform="translate(547,448)"/>
<path d="M0 0 C0.2636611 4.3943517 0.2636611 4.3943517 -1 7 C-3.70135201 8.91165965 -6.44739514 10.3172089 -9.43359375 11.73828125 C-12.08601509 12.87095158 -12.08601509 12.87095158 -14 15 C-13.6814823 17.10820797 -13.6814823 17.10820797 -13 19 C-8.35290785 18.88084379 -6.01019796 17.38685669 -2.5625 14.5 C1.40908524 11.2082963 3.87148063 10.10911743 9 10 C11.27374205 13.41061308 11.12811056 14.88582046 10.5078125 18.83300781 C9.66339104 22.43641403 8.18950627 25.59615104 6.5 28.875 C5.96922852 29.91708618 5.96922852 29.91708618 5.42773438 30.98022461 C2.1400266 37.17634462 -1.90943859 42.16662723 -7 47 C-8.10988281 48.06927734 -8.10988281 48.06927734 -9.2421875 49.16015625 C-14.49577535 54 -14.49577535 54 -18 54 C-17.88431387 50.18235778 -16.64857088 48.41346863 -14 45.875 C-13.06607422 44.99714844 -13.06607422 44.99714844 -12.11328125 44.1015625 C-7.22977666 39.24513835 -2.81874581 33.72811872 1 28 C0.21496094 28.5053125 -0.57007813 29.010625 -1.37890625 29.53125 C-11.04276877 35.50743001 -11.04276877 35.50743001 -15.0625 35.75 C-18 35 -18 35 -19.9375 33.1875 C-22.21357755 26.35926734 -21.71936789 18.91904372 -19.1796875 12.20703125 C-16.46263747 7.12380851 -12.63211642 2.30212113 -7.41796875 -0.27734375 C-4.56666372 -1.12951084 -2.830743 -0.80878371 0 0 Z " fill="#8B5318" transform="translate(349,602)"/>
<path d="M0 0 C5.44154396 0.54843908 9.54034259 2.51622016 14.3125 5 C15.04017578 5.36867188 15.76785156 5.73734375 16.51757812 6.1171875 C21.83068452 8.83068452 21.83068452 8.83068452 23 10 C22.59845309 15.99958329 20.6226397 20.92134775 18.1875 26.375 C17.84396484 27.19355469 17.50042969 28.01210938 17.14648438 28.85546875 C16.80294922 29.63277344 16.45941406 30.41007813 16.10546875 31.2109375 C15.79762451 31.91524902 15.48978027 32.61956055 15.17260742 33.34521484 C14 35 14 35 12.16625977 35.86743164 C9.29947707 36.04286982 7.77618085 35.22994005 5.234375 33.91015625 C4.34492187 33.45576172 3.45546875 33.00136719 2.5390625 32.53320312 C1.61867188 32.04787109 0.69828125 31.56253906 -0.25 31.0625 C-1.65378906 30.34030273 -1.65378906 30.34030273 -3.0859375 29.60351562 C-5.39637901 28.41293097 -7.700487 27.21152028 -10 26 C-8.84002292 19.45552164 -6.82200577 13.87837206 -3.875 7.9375 C-3.50246094 7.16728516 -3.12992188 6.39707031 -2.74609375 5.60351562 C-1.83918261 3.73155801 -0.92080383 1.86516311 0 0 Z " fill="#854F18" transform="translate(549,625)"/>
<path d="M0 0 C2.02654295 2.12811193 2.92755496 3.46959882 3.328125 6.40234375 C3.30234375 7.23894531 3.2765625 8.07554687 3.25 8.9375 C3.22421875 9.81019531 3.1984375 10.68289063 3.171875 11.58203125 C2.99128671 14.12258014 2.65689606 16.53663979 2 19 C3.485 19.495 3.485 19.495 5 20 C4.67 22.31 4.34 24.62 4 27 C-0.75 28.125 -0.75 28.125 -3 27 C-3.42345703 27.89332031 -3.42345703 27.89332031 -3.85546875 28.8046875 C-12.19906661 44.80844859 -33.76923201 54.39782571 -48.9375 62.375 C-49.93313965 62.8994873 -50.9287793 63.42397461 -51.95458984 63.96435547 C-56.55629343 66.35126044 -60.98481936 68.59133674 -66 70 C-64.51972066 66.23670022 -62.56941557 64.72519896 -59.22265625 62.53125 C-57.75348755 61.55973999 -57.75348755 61.55973999 -56.25463867 60.56860352 C-55.20123291 59.88596436 -54.14782715 59.2033252 -53.0625 58.5 C-51.98524658 57.79093506 -50.90799316 57.08187012 -49.7980957 56.35131836 C-43.15230436 51.99359136 -36.43686813 47.7571395 -29.6875 43.5625 C-17.03633748 35.76696342 -17.03633748 35.76696342 -7 25 C-7.7425 24.7525 -8.485 24.505 -9.25 24.25 C-12.40191874 22.81730966 -14.03527049 21.87152775 -16 19 C-16.2048688 12.85393596 -14.42375227 9.52161919 -10.66796875 4.76171875 C-7.39261306 1.30226812 -4.92913947 -0.88471734 0 0 Z M-8.125 10 C-8.74375 10.66 -9.3625 11.32 -10 12 C-9.32828556 15.06892234 -9.32828556 15.06892234 -7.125 16.1875 C-4.91214647 17.17856873 -4.91214647 17.17856873 -2 17 C-1.76571687 12.2102679 -1.76571687 12.2102679 -4 8 C-6.24362573 7.7715451 -6.24362573 7.7715451 -8.125 10 Z " fill="#D37E1C" transform="translate(617,408)"/>
<path d="M0 0 C5.37620536 1.60132849 9.94730411 3.23929262 14.5 6.625 C15.3353125 7.23601563 16.170625 7.84703125 17.03125 8.4765625 C19 10 19 10 20 11 C19.6971776 17.83291565 17.47643851 22.94073823 14.4375 29 C14.01275391 29.87011719 13.58800781 30.74023438 13.15039062 31.63671875 C12.11054303 33.76314866 11.06036307 35.88374661 10 38 C6.88263572 36.4965267 4.37698772 34.81289588 1.6875 32.625 C-2.05655871 29.65578788 -5.78564904 27.24167604 -10 25 C-9.4671171 19.08984421 -7.015992 14.36885509 -4.4375 9.125 C-4.01275391 8.24585938 -3.58800781 7.36671875 -3.15039062 6.4609375 C-2.10703441 4.30388644 -1.05678116 2.15049712 0 0 Z " fill="#A2611A" transform="translate(626,550)"/>
<path d="M0 0 C4.54238994 2.32784609 9.01125475 4.77913229 13.125 7.8125 C13.70507812 8.23144531 14.28515625 8.65039062 14.8828125 9.08203125 C16.77987389 12.3388744 15.87479682 15.52260874 15 19 C13.81455974 22.41259987 12.40489249 25.70026766 10.9375 29 C10.56044922 29.87011719 10.18339844 30.74023438 9.79492188 31.63671875 C8.87240722 33.76200567 7.94069645 35.8827138 7 38 C4 38 4 38 2.1328125 36.13671875 C1.47023438 35.32847656 0.80765625 34.52023437 0.125 33.6875 C-2.06701786 31.0183959 -3.65258144 29.19082846 -6.6953125 27.51953125 C-9 26 -9 26 -9.75878906 23.70678711 C-10.0401152 20.5498409 -9.49614865 19.02561122 -8.1640625 16.171875 C-7.55691406 14.84929688 -7.55691406 14.84929688 -6.9375 13.5 C-6.504375 12.5925 -6.07125 11.685 -5.625 10.75 C-5.19960938 9.82703125 -4.77421875 8.9040625 -4.3359375 7.953125 C-1.19574176 1.19574176 -1.19574176 1.19574176 0 0 Z " fill="#9D5E19" transform="translate(695,562)"/>
<path d="M0 0 C2 3 2 3 1.875 6.25 C1.05119534 9.78059138 -0.16938471 12.05384018 -2.078125 15.08984375 C-3.73807072 18.52930756 -3.82904349 22.23040902 -4 26 C-3.34 26 -2.68 26 -2 26 C-2.33 27.98 -2.66 29.96 -3 32 C-3.90105469 32.13921875 -3.90105469 32.13921875 -4.8203125 32.28125 C-7.53439377 33.17621587 -8.19811658 34.21581286 -9.875 36.5 C-16.70169837 44.66555516 -26.7837494 50.35786622 -37 53 C-35.84814804 49.54444411 -35.21419698 49.20978527 -32.24609375 47.328125 C-31.47330078 46.82796875 -30.70050781 46.3278125 -29.90429688 45.8125 C-29.09025391 45.296875 -28.27621094 44.78125 -27.4375 44.25 C-21.16039888 40.26062206 -15.46658624 36.05534537 -10 31 C-10.99 30.01 -11.98 29.02 -13 28 C-13.721875 28.350625 -14.44375 28.70125 -15.1875 29.0625 C-18.32982572 30.10994191 -19.87318269 29.9554164 -23 29 C-24 28 -24 28 -24.3125 24.4375 C-24.10970963 14.92325187 -17.4389701 8.3796794 -11 2 C-6.91569792 -0.72286806 -4.85409123 -0.38524534 0 0 Z M-8.9296875 5.8984375 C-13.99896439 9.74620189 -18.42398456 14.07193099 -21 20 C-20.74132163 22.21894681 -20.74132163 22.21894681 -20 24 C-17.70218446 24.11635105 -17.70218446 24.11635105 -15 23 C-13.37357961 20.98613392 -11.98661349 18.91586102 -10.625 16.71484375 C-9 15 -9 15 -6.3125 14.75390625 C-5.1678125 14.87572266 -5.1678125 14.87572266 -4 15 C-2.38050989 12.42786866 -1.95591249 11.32330841 -2.375 8.25 C-2.58125 7.5075 -2.7875 6.765 -3 6 C-5.43580281 5.10145941 -6.52977764 4.78107056 -8.9296875 5.8984375 Z M-9 19 C-9.99 20.485 -9.99 20.485 -11 22 C-9.02 22.99 -9.02 22.99 -7 24 C-7.33 22.35 -7.66 20.7 -8 19 C-8.33 19 -8.66 19 -9 19 Z " fill="#C8781B" transform="translate(370,443)"/>
<path d="M0 0 C4.23616473 1.85621036 5.50612082 4.06875687 7.75 8.125 C8.67039062 9.76855469 8.67039062 9.76855469 9.609375 11.4453125 C10.06828125 12.28835938 10.5271875 13.13140625 11 14 C13.60912969 10.86123928 15.81853262 7.78217539 17.75 4.1875 C18.17796875 3.39730469 18.6059375 2.60710938 19.046875 1.79296875 C19.36140625 1.20128906 19.6759375 0.60960937 20 0 C20.99 0.33 21.98 0.66 23 1 C23.19335938 2.21558594 23.38671875 3.43117188 23.5859375 4.68359375 C23.84849342 6.26830626 24.11153959 7.85293761 24.375 9.4375 C24.56449219 10.64116211 24.56449219 10.64116211 24.7578125 11.86914062 C25.10482796 13.92520723 25.54590428 15.96490131 26 18 C26.66 18.33 27.32 18.66 28 19 C28 19.66 28 20.32 28 21 C25.03 21 22.06 21 19 21 C19 20.34 19 19.68 19 19 C19.66 19 20.32 19 21 19 C20.34 15.7 19.68 12.4 19 9 C18.51789062 9.86625 18.03578125 10.7325 17.5390625 11.625 C16.90742187 12.73875 16.27578125 13.8525 15.625 15 C14.68527344 16.670625 14.68527344 16.670625 13.7265625 18.375 C13.15679688 19.24125 12.58703125 20.1075 12 21 C11.34 21 10.68 21 10 21 C8.71593601 19.04775792 7.52058322 17.03659238 6.375 15 C5.42753906 13.329375 5.42753906 13.329375 4.4609375 11.625 C3.73777344 10.325625 3.73777344 10.325625 3 9 C2.34 12.3 1.68 15.6 1 19 C1.66 19 2.32 19 3 19 C3 19.66 3 20.32 3 21 C0.36 21 -2.28 21 -5 21 C-5 20.34 -5 19.68 -5 19 C-4.34 18.67 -3.68 18.34 -3 18 C-2.43936438 16.16850982 -2.43936438 16.16850982 -2.1484375 13.96484375 C-2.01953125 13.15595703 -1.890625 12.34707031 -1.7578125 11.51367188 C-1.63148438 10.66353516 -1.50515625 9.81339844 -1.375 8.9375 C-1.2409375 8.08349609 -1.106875 7.22949219 -0.96875 6.34960938 C-0.63786426 4.23430411 -0.31791201 2.11729396 0 0 Z " fill="#503016" transform="translate(622,771)"/>
<path d="M0 0 C4.06564732 1.35521577 5.1350785 4.04035171 7.1875 7.5625 C7.55552734 8.17802734 7.92355469 8.79355469 8.30273438 9.42773438 C9.209679 10.94716109 10.10588168 12.47299033 11 14 C13.60912969 10.86123928 15.81853262 7.78217539 17.75 4.1875 C18.17796875 3.39730469 18.6059375 2.60710938 19.046875 1.79296875 C19.36140625 1.20128906 19.6759375 0.60960937 20 0 C20.66 0 21.32 0 22 0 C23.7899856 6.3246158 24.54240047 12.4491015 25 19 C25.99 19 26.98 19 28 19 C28 19.66 28 20.32 28 21 C25.03 21 22.06 21 19 21 C19 20.34 19 19.68 19 19 C19.66 19 20.32 19 21 19 C20.34 15.7 19.68 12.4 19 9 C16.69 12.96 14.38 16.92 12 21 C8.17529197 19.72509732 7.80721302 18.38926747 5.875 14.9375 C4.93963446 13.27850589 3.98724342 11.62865606 3 10 C2.67 10 2.34 10 2 10 C2 13.63 2 17.26 2 21 C-0.64 21 -3.28 21 -6 21 C-6 20.34 -6 19.68 -6 19 C-5.01 18.67 -4.02 18.34 -3 18 C-2.01 12.06 -1.02 6.12 0 0 Z " fill="#4F2F16" transform="translate(425,771)"/>
<path d="M0 0 C0.66 0 1.32 0 2 0 C1.56304029 5.35275639 0.40814681 10.28158531 -1.0625 15.4375 C-3.06546618 22.57620906 -3.98366892 28.72654729 -2 36 C1.65316671 34.75023244 2.78065836 34.32901247 5 31 C5.66 31 6.32 31 7 31 C6.17615339 40.72139005 6.17615339 40.72139005 3 44 C0.20438616 44.4254195 -2.14627473 44.23391191 -5 44 C-9.99814257 35.18364772 -8.78231669 25.67798417 -6.25 16.1875 C-4.5979358 10.53508033 -2.59464595 5.28195782 0 0 Z " fill="#895218" transform="translate(433,603)"/>
<path d="M0 0 C0.66 0 1.32 0 2 0 C0.98471971 5.39890226 -0.1762908 10.69950946 -1.625 16 C-2.97570773 21.31369791 -3.79945013 26.52843875 -3 32 C-2.34 32.99 -1.68 33.98 -1 35 C-0.01 35 0.98 35 2 35 C2.66 33.68 3.32 32.36 4 31 C4.99 31 5.98 31 7 31 C6.54235293 35.66800008 6.16729718 39.41039653 3 43 C-0.5 44 -0.5 44 -4 44 C-7.48427156 41.34928623 -8.11635865 38.36381784 -8.83984375 34.19921875 C-9.40745523 22.8608333 -5.71587998 11.17815823 -1 1 C-0.67 0.67 -0.34 0.34 0 0 Z " fill="#A9651A" transform="translate(315,520)"/>
<path d="M0 0 C0.66 0 1.32 0 2 0 C1.32077809 6.41647929 -0.00578665 12.4308071 -1.71484375 18.64453125 C-3.12948644 24.21150644 -3.66745364 29.66509272 -1 35 C0.94074861 34.72382467 0.94074861 34.72382467 3 34 C3.66 33.01 4.32 32.02 5 31 C5.66 31 6.32 31 7 31 C7.50477602 36.30014818 6.20817314 38.81965318 3 43 C2.505 43.495 2.505 43.495 2 44 C-1.375 43.9375 -1.375 43.9375 -5 43 C-8.36546848 38.87458703 -8.5028305 34.46162355 -8.35546875 29.33203125 C-7.26818786 19.14026645 -4.65380151 9.14139582 0 0 Z " fill="#B36B1A" transform="translate(529,495)"/>
<path d="M0 0 C0.66 0 1.32 0 2 0 C1.32077809 6.41647929 -0.00578665 12.4308071 -1.71484375 18.64453125 C-3.02375004 23.79540709 -3.16862362 27.78090424 -2 33 C-1.01 33.66 -0.02 34.32 1 35 C2.70840281 33.36587557 3.93453047 32.13093906 5 30 C5.66 30 6.32 30 7 30 C7.33406575 34.17582188 7.20564042 36.58871916 5.3125 40.375 C3 43 3 43 0.5625 44.1875 C-2 44 -2 44 -4.75 41.75 C-8.77423869 36.83148605 -8.54032388 32.09159666 -8 26 C-6.47854305 16.92264377 -4.18680519 8.22408162 0 0 Z " fill="#CF7C1C" transform="translate(497,423)"/>
<path d="M0 0 C0.66 0 1.32 0 2 0 C1.3370408 6.2457735 0.05621618 12.04828312 -1.62695312 18.08789062 C-2.99866826 23.25820154 -4.08476571 28.35588358 -2 33.4375 C-1.67 33.953125 -1.34 34.46875 -1 35 C0.94074861 34.72382467 0.94074861 34.72382467 3 34 C3.66 33.01 4.32 32.02 5 31 C5.66 31 6.32 31 7 31 C7.50477602 36.30014818 6.20817314 38.81965318 3 43 C2.505 43.495 2.505 43.495 2 44 C-1.375 43.9375 -1.375 43.9375 -5 43 C-8.52238317 38.79586524 -8.55154768 33.97478955 -8.42578125 28.69921875 C-7.30001845 18.91850894 -4.74643708 8.65772393 0 0 Z " fill="#CB791C" transform="translate(688,434)"/>
<path d="M0 0 C0.66 0 1.32 0 2 0 C1.3370408 6.2457735 0.05621618 12.04828312 -1.62695312 18.08789062 C-2.99866826 23.25820154 -4.08476571 28.35588358 -2 33.4375 C-1.67 33.953125 -1.34 34.46875 -1 35 C0.94074861 34.72382467 0.94074861 34.72382467 3 34 C3.66 33.01 4.32 32.02 5 31 C5.66 31 6.32 31 7 31 C6.70594747 35.33727481 6.42073556 38.2070753 4.375 42.0625 C2 44 2 44 -1.5625 44.1875 C-5 43 -5 43 -6.9375 40.6875 C-10.6801383 27.69834355 -6.38659686 11.64945233 0 0 Z " fill="#693F17" transform="translate(688,689)"/>
<path d="M0 0 C0.66 0 1.32 0 2 0 C1.3715794 5.09351436 0.28503814 9.92229008 -1.0625 14.875 C-2.58681864 20.73127288 -3.61585149 25.94412698 -3 32 C-2.34 32.99 -1.68 33.98 -1 35 C0.94074861 34.72382467 0.94074861 34.72382467 3 34 C3.66 33.01 4.32 32.02 5 31 C5.66 31 6.32 31 7 31 C6.70437364 35.36048883 6.46523117 38.17292236 4.3125 42 C2 44 2 44 -1 44.6875 C-4 44 -4 44 -6.375 41.875 C-10.5798593 34.33098773 -8.36076281 24.13200917 -6.25 16.1875 C-4.5979358 10.53508033 -2.59464595 5.28195782 0 0 Z " fill="#854F18" transform="translate(836,618)"/>
<path d="M0 0 C0.66 0 1.32 0 2 0 C1.29132484 6.62686668 -0.0705222 12.9248967 -1.71484375 19.37695312 C-2.86597621 24.21750654 -3.21627632 28.05847946 -2 33 C-0.06402968 34.51294288 -0.06402968 34.51294288 2 35 C3.65 33.35 5.3 31.7 7 30 C8.28598278 33.85794835 7.43374054 35.47360356 5.94921875 39.12109375 C4.67759857 41.63816909 3.59266344 42.85617789 1 44 C-1.5625 43.9375 -1.5625 43.9375 -4 43 C-7.63319257 39.10729368 -8.34541173 35.24772417 -8.28515625 29.98828125 C-7.30478304 19.71450722 -4.31734177 9.34658564 0 0 Z " fill="#B0691A" transform="translate(891,507)"/>
<path d="M0 0 C3.73506321 0.9337658 4.69993326 1.3041086 7.3828125 3.6875 C7.99253906 4.22117187 8.60226562 4.75484375 9.23046875 5.3046875 C9.85566406 5.86414063 10.48085938 6.42359375 11.125 7 C12.37610517 8.10586486 13.62864432 9.21011014 14.8828125 10.3125 C15.43340332 10.80363281 15.98399414 11.29476562 16.55126953 11.80078125 C18.00672803 13.09746176 18.00672803 13.09746176 20 14 C19.88617347 12.04098546 19.75858875 10.0827662 19.625 8.125 C19.55539062 7.03445313 19.48578125 5.94390625 19.4140625 4.8203125 C19.26746509 1.86953526 19.26746509 1.86953526 17 0 C19.97 0 22.94 0 26 0 C25.34 0.66 24.68 1.32 24 2 C23.63105418 4.03060659 23.63105418 4.03060659 23.5859375 6.3515625 C23.54726563 7.20234375 23.50859375 8.053125 23.46875 8.9296875 C23.42234375 10.26386719 23.42234375 10.26386719 23.375 11.625 C23.33632813 12.5221875 23.29765625 13.419375 23.2578125 14.34375 C23.16340643 16.5622927 23.07783252 18.78082403 23 21 C20.13909231 19.66895994 17.77740198 18.16444643 15.328125 16.1796875 C14.66425781 15.64472656 14.00039063 15.10976563 13.31640625 14.55859375 C12.63449219 14.00300781 11.95257812 13.44742188 11.25 12.875 C10.55261719 12.31167969 9.85523438 11.74835937 9.13671875 11.16796875 C7.42180768 9.78194473 5.7105427 8.3914116 4 7 C3.67 10.96 3.34 14.92 3 19 C3.99 19 4.98 19 6 19 C6 19.66 6 20.32 6 21 C3.03 21 0.06 21 -3 21 C-3 20.34 -3 19.68 -3 19 C-2.01 19 -1.02 19 0 19 C0 12.73 0 6.46 0 0 Z " fill="#503016" transform="translate(566,771)"/>
<path d="M0 0 C5.56818182 0.56818182 5.56818182 0.56818182 7 2 C6.71269945 4.33944736 6.38063221 6.6739143 6 9 C4.35 8.34 2.7 7.68 1 7 C0.80664062 8.13179687 0.61328125 9.26359375 0.4140625 10.4296875 C0.15145714 11.91153202 -0.11158648 13.39329892 -0.375 14.875 C-0.56449219 15.99455078 -0.56449219 15.99455078 -0.7578125 17.13671875 C-1.7734375 22.7734375 -1.7734375 22.7734375 -4 25 C-6 24 -6 24 -6.82421875 21.8203125 C-7.25154297 20.48613281 -7.25154297 20.48613281 -7.6875 19.125 C-9.03786454 15.40059779 -9.03786454 15.40059779 -11.78125 12.70703125 C-13.88988073 11.81602001 -13.88988073 11.81602001 -17 11 C-18 10 -18 10 -18.0625 6.9375 C-18.041875 5.968125 -18.02125 4.99875 -18 4 C-16.375 3.1875 -16.375 3.1875 -14 3 C-9.86785295 5.86720407 -7.32537671 8.47843417 -5 13 C-4.80664062 12.22914063 -4.61328125 11.45828125 -4.4140625 10.6640625 C-4.15367187 9.66117188 -3.89328125 8.65828125 -3.625 7.625 C-3.24214844 6.12839844 -3.24214844 6.12839844 -2.8515625 4.6015625 C-2 2 -2 2 0 0 Z " fill="#6F4317" transform="translate(786,691)"/>
<path d="M0 0 C2.5 0.25 2.5 0.25 4.5 2.25 C4.625 5.375 4.625 5.375 4.5 8.25 C1.53 7.755 1.53 7.755 -1.5 7.25 C-2.49 12.53 -3.48 17.81 -4.5 23.25 C-5.82 23.25 -7.14 23.25 -8.5 23.25 C-8.79390625 22.34507812 -8.79390625 22.34507812 -9.09375 21.421875 C-10.84272508 16.74788986 -12.14505297 13.93281992 -16.75 11.6875 C-17.98837488 11.17904316 -19.23531853 10.68895498 -20.5 10.25 C-20.5 8.27 -20.5 6.29 -20.5 4.25 C-18.3125 3.4375 -18.3125 3.4375 -15.5 3.25 C-11.96204328 6.1140602 -9.66135955 9.26854819 -7.5 13.25 C-7.30664062 12.47914063 -7.11328125 11.70828125 -6.9140625 10.9140625 C-6.65367187 9.91117188 -6.39328125 8.90828125 -6.125 7.875 C-5.74214844 6.37839844 -5.74214844 6.37839844 -5.3515625 4.8515625 C-4.25893543 1.51353668 -3.57515129 0.35751513 0 0 Z " fill="#B16A1A" transform="translate(482.5,517.75)"/>
<path d="M0 0 C5.56818182 0.56818182 5.56818182 0.56818182 7 2 C6.71269945 4.33944736 6.38063221 6.6739143 6 9 C4.35 8.34 2.7 7.68 1 7 C0.79503906 8.13179688 0.59007812 9.26359375 0.37890625 10.4296875 C0.10693028 11.91148761 -0.16521387 13.39325685 -0.4375 14.875 C-0.57220703 15.62136719 -0.70691406 16.36773437 -0.84570312 17.13671875 C-1.88671875 22.7734375 -1.88671875 22.7734375 -3 25 C-3.99 24.67 -4.98 24.34 -6 24 C-6.921875 21.8203125 -6.921875 21.8203125 -7.75 19.125 C-9.05612639 15.39817542 -9.05612639 15.39817542 -11.77734375 12.70703125 C-13.88945214 11.81656228 -13.88945214 11.81656228 -17 11 C-18 10 -18 10 -18.0625 6.9375 C-18.041875 5.968125 -18.02125 4.99875 -18 4 C-16.375 3.1875 -16.375 3.1875 -14 3 C-9.86785295 5.86720407 -7.32537671 8.47843417 -5 13 C-4.80664062 12.22914063 -4.61328125 11.45828125 -4.4140625 10.6640625 C-4.15367187 9.66117187 -3.89328125 8.65828125 -3.625 7.625 C-3.24214844 6.12839844 -3.24214844 6.12839844 -2.8515625 4.6015625 C-2 2 -2 2 0 0 Z " fill="#BF721B" transform="translate(603,483)"/>
<path d="M0 0 C5.56818182 0.56818182 5.56818182 0.56818182 7 2 C7.04080783 3.99958364 7.04254356 6.00045254 7 8 C4 8 4 8 1 7 C0.79503906 8.13179688 0.59007812 9.26359375 0.37890625 10.4296875 C0.10693028 11.91148761 -0.16521387 13.39325685 -0.4375 14.875 C-0.57220703 15.62136719 -0.70691406 16.36773437 -0.84570312 17.13671875 C-1.88671875 22.7734375 -1.88671875 22.7734375 -3 25 C-3.66 25 -4.32 25 -5 25 C-5.27972656 24.24074219 -5.55945313 23.48148437 -5.84765625 22.69921875 C-7.93012155 17.01633149 -7.93012155 17.01633149 -11.85546875 12.63671875 C-13.94184306 11.75421635 -13.94184306 11.75421635 -17 11 C-18 10 -18 10 -18.0625 7.4375 C-18.041875 6.633125 -18.02125 5.82875 -18 5 C-16.68 4.34 -15.36 3.68 -14 3 C-12.86800647 3.9080162 -11.74467637 4.82683826 -10.625 5.75 C-9.99851562 6.26046875 -9.37203125 6.7709375 -8.7265625 7.296875 C-6.91687682 9.08199481 -5.99882545 10.67949644 -5 13 C-4.80664062 12.22914063 -4.61328125 11.45828125 -4.4140625 10.6640625 C-4.15367187 9.66117187 -3.89328125 8.65828125 -3.625 7.625 C-3.24214844 6.12839844 -3.24214844 6.12839844 -2.8515625 4.6015625 C-2 2 -2 2 0 0 Z " fill="#CF7C1C" transform="translate(747,441)"/>
<path d="M0 0 C2.87557703 -0.08138426 5.74882262 -0.14067851 8.625 -0.1875 C9.43324219 -0.21263672 10.24148438 -0.23777344 11.07421875 -0.26367188 C17.03796593 -0.3364005 21.41373394 0.49994281 25.875 4.8125 C27.39977526 7.77734078 27.40388958 9.70156847 27 13 C25.98708673 15.90368471 25.00457831 17.4145814 22.32421875 18.9765625 C15.17514223 21.85773458 7.5622027 21.26901116 0 21 C0 20.34 0 19.68 0 19 C0.99 19 1.98 19 3 19 C2.88638398 16.20743781 2.7596411 13.41655882 2.625 10.625 C2.57859375 9.43390625 2.57859375 9.43390625 2.53125 8.21875 C2.48183579 3.63332625 2.48183579 3.63332625 0 0 Z M7 2 C7 7.61 7 13.22 7 19 C14.79646328 19.18223977 14.79646328 19.18223977 21 16 C23.32877362 13.12405164 23.32877362 13.12405164 22.9375 9.5625 C22.24996561 5.97875803 22.24996561 5.97875803 20.0625 3.5625 C15.57231282 1.27158817 12.00767921 1.73292378 7 2 Z " fill="#503016" transform="translate(495,771)"/>
<path d="M0 0 C3.29714793 0.32971479 4.6226839 0.6226839 7 3 C6.625 6.125 6.625 6.125 6 9 C4.35 8.34 2.7 7.68 1 7 C-1.26475565 12.82365738 -2.06548814 18.8560816 -3 25 C-3.99 25 -4.98 25 -6 25 C-6.1959375 24.32453125 -6.391875 23.6490625 -6.59375 22.953125 C-8.31893457 17.53897243 -8.31893457 17.53897243 -12.046875 13.4453125 C-14.46549599 12.22464209 -14.46549599 12.22464209 -18 11 C-18 8.69 -18 6.38 -18 4 C-15.23662074 4 -13.5345734 4.02360745 -11 5 C-8.62513939 7.43667911 -6.79343959 10.11604403 -5 13 C-4.80664062 12.22914063 -4.61328125 11.45828125 -4.4140625 10.6640625 C-4.15367187 9.66117187 -3.89328125 8.65828125 -3.625 7.625 C-3.24214844 6.12839844 -3.24214844 6.12839844 -2.8515625 4.6015625 C-2 2 -2 2 0 0 Z " fill="#D8811C" transform="translate(549,417)"/>
<path d="M0 0 C5.71428571 0.71428571 5.71428571 0.71428571 7 2 C7.04080783 3.99958364 7.04254356 6.00045254 7 8 C4 8 4 8 1 6 C0.01 11.94 -0.98 17.88 -2 24 C-2.99 24.33 -3.98 24.66 -5 25 C-5.27714844 24.37351562 -5.55429687 23.74703125 -5.83984375 23.1015625 C-6.38318359 21.87566406 -6.38318359 21.87566406 -6.9375 20.625 C-7.29714844 19.81289063 -7.65679688 19.00078125 -8.02734375 18.1640625 C-8.6569903 16.76316215 -9.31312642 15.37374716 -10 14 C-11.7325 13.3503125 -11.7325 13.3503125 -13.5 12.6875 C-17 11 -17 11 -18 8.4375 C-18 6 -18 6 -17 4 C-13.8125 4 -13.8125 4 -10 5 C-7.90295564 7.45520293 -6.42723008 10.11265436 -5 13 C-4.72285156 12.14535156 -4.44570313 11.29070313 -4.16015625 10.41015625 C-3.79792969 9.30542969 -3.43570313 8.20070313 -3.0625 7.0625 C-2.70285156 5.96035156 -2.34320312 4.85820313 -1.97265625 3.72265625 C-1 1 -1 1 0 0 Z " fill="#935819" transform="translate(866,598)"/>
<path d="M0 0 C5.5952381 0.5952381 5.5952381 0.5952381 8 3 C8.125 6.125 8.125 6.125 8 9 C6 8 4 7 2 6 C2.2475 7.918125 2.2475 7.918125 2.5 9.875 C3.07041736 14.9284158 3.09543708 19.92062649 3 25 C-0.63860635 23.78713122 -0.76393326 22.99278899 -2.5625 19.75 C-5.9627703 14.35260891 -10.18290338 12.28775144 -16 10 C-16 8.02 -16 6.04 -16 4 C-12.01669933 4 -9.97646023 4.1083674 -6.9765625 6.84765625 C-5.24448442 8.85191803 -3.58842798 10.88048667 -2 13 C-1.93941406 12.14535156 -1.87882813 11.29070313 -1.81640625 10.41015625 C-1.73261719 9.30542969 -1.64882813 8.20070313 -1.5625 7.0625 C-1.48128906 5.96035156 -1.40007813 4.85820313 -1.31640625 3.72265625 C-1 1 -1 1 0 0 Z " fill="#683E17" transform="translate(615,708)"/>
<path d="M0 0 C2.24940295 -0.08119503 4.49964871 -0.13927819 6.75 -0.1875 C8.00296875 -0.22230469 9.2559375 -0.25710938 10.546875 -0.29296875 C14.14109357 0.01197061 15.44725126 0.54394629 18 3 C17.6875 6.375 17.6875 6.375 17 10 C16.01 10.66 15.02 11.32 14 12 C15.09918816 12.98475214 16.2045602 13.96260473 17.3125 14.9375 C18.23482422 15.75541016 18.23482422 15.75541016 19.17578125 16.58984375 C21.05241958 18.20081559 21.05241958 18.20081559 24 19 C24 19.66 24 20.32 24 21 C19.68620036 21 17.17086714 20.94648493 13.7578125 18.1875 C12.36356412 16.75750166 10.99718453 15.29964809 9.6640625 13.8125 C8.11475379 11.9088733 8.11475379 11.9088733 6 11 C6.25561323 13.3431213 6.59270772 15.67843403 7 18 C7.66 18.33 8.32 18.66 9 19 C9 19.66 9 20.32 9 21 C6.03 21 3.06 21 0 21 C0 20.34 0 19.68 0 19 C0.66 18.67 1.32 18.34 2 18 C2.05382106 15.37472811 2.09358313 12.75055287 2.125 10.125 C2.14175781 9.37863281 2.15851563 8.63226562 2.17578125 7.86328125 C2.1933959 5.90805539 2.10320189 3.95257979 2 2 C1.34 1.34 0.68 0.68 0 0 Z M6 2 C6 4.64 6 7.28 6 10 C9.465 9.505 9.465 9.505 13 9 C13.67958603 6.60280568 13.67958603 6.60280568 14 4 C12.10244856 1.65026182 12.10244856 1.65026182 8.875 1.875 C7.92625 1.91625 6.9775 1.9575 6 2 Z " fill="#503016" transform="translate(357,771)"/>
<path d="M0 0 C2.24940295 -0.08119503 4.49964871 -0.13927819 6.75 -0.1875 C8.00296875 -0.22230469 9.2559375 -0.25710938 10.546875 -0.29296875 C14.15547219 0.01319051 15.52038022 0.42217745 18 3 C18.5 5.4375 18.5 5.4375 18 8 C16 10.3125 16 10.3125 14 12 C15.09918816 12.98475214 16.2045602 13.96260473 17.3125 14.9375 C18.23482422 15.75541016 18.23482422 15.75541016 19.17578125 16.58984375 C21.05241958 18.20081559 21.05241958 18.20081559 24 19 C24 19.66 24 20.32 24 21 C19.68620036 21 17.17086714 20.94648493 13.7578125 18.1875 C12.36356412 16.75750166 10.99718453 15.29964809 9.6640625 13.8125 C8.11475379 11.9088733 8.11475379 11.9088733 6 11 C6 13.64 6 16.28 6 19 C6.99 19 7.98 19 9 19 C9 19.66 9 20.32 9 21 C6.03 21 3.06 21 0 21 C0 20.34 0 19.68 0 19 C0.66 18.67 1.32 18.34 2 18 C2.05382106 15.37472811 2.09358313 12.75055287 2.125 10.125 C2.14175781 9.37863281 2.15851562 8.63226562 2.17578125 7.86328125 C2.1933959 5.90805539 2.10320189 3.95257979 2 2 C1.34 1.34 0.68 0.68 0 0 Z M6 2 C6 4.64 6 7.28 6 10 C9.465 9.505 9.465 9.505 13 9 C13.67958603 6.60280568 13.67958603 6.60280568 14 4 C12.10244856 1.65026182 12.10244856 1.65026182 8.875 1.875 C7.92625 1.91625 6.9775 1.9575 6 2 Z " fill="#513016" transform="translate(756,771)"/>
<path d="M0 0 C2.97 0 5.94 0 9 0 C8.34 0.66 7.68 1.32 7 2 C6.83322718 5.58343976 6.83322718 5.58343976 7 9 C8.17262904 7.88121617 9.33795138 6.75476949 10.5 5.625 C11.47453125 4.68527344 11.47453125 4.68527344 12.46875 3.7265625 C14.22117431 2.13524093 14.22117431 2.13524093 14 0 C16.64 0 19.28 0 22 0 C21.29875 0.556875 20.5975 1.11375 19.875 1.6875 C16.88655739 4.09124732 13.94059762 6.53810432 11 9 C11.7425 9.7425 12.485 10.485 13.25 11.25 C14.89596518 12.89596518 16.52671462 14.55769783 18.125 16.25 C19.97977175 18.22443723 19.97977175 18.22443723 23 19 C23 19.66 23 20.32 23 21 C15.58998328 20.84562465 12.0572785 17.0572785 7 12 C6.67 14.31 6.34 16.62 6 19 C6.99 19 7.98 19 9 19 C9 19.66 9 20.32 9 21 C6.03 21 3.06 21 0 21 C0 20.34 0 19.68 0 19 C0.66 18.67 1.32 18.34 2 18 C2.05382106 15.37472811 2.09358313 12.75055287 2.125 10.125 C2.14175781 9.37863281 2.15851562 8.63226562 2.17578125 7.86328125 C2.1933959 5.90805539 2.10320189 3.95257979 2 2 C1.34 1.34 0.68 0.68 0 0 Z " fill="#513016" transform="translate(820,771)"/>
<path d="M0 0 C1.91635217 -0.05423638 3.83314925 -0.09289963 5.75 -0.125 C7.35101562 -0.15980469 7.35101562 -0.15980469 8.984375 -0.1953125 C11.92470106 -0.00487687 13.52361878 0.47329896 16 2 C15.93489583 4.01822917 15.86979167 6.03645833 15.8046875 8.0546875 C15.81668311 10.23863645 15.81668311 10.23863645 18 12 C18.25 15 18.25 15 18 18 C15.12563833 20.87436167 12.99972292 20.96762555 8.984375 21.09765625 C7.91703125 21.08605469 6.8496875 21.07445312 5.75 21.0625 C4.67234375 21.05347656 3.5946875 21.04445313 2.484375 21.03515625 C1.66453125 21.02355469 0.8446875 21.01195312 0 21 C0 20.34 0 19.68 0 19 C0.66 18.67 1.32 18.34 2 18 C2.05382106 15.37472811 2.09358313 12.75055287 2.125 10.125 C2.14175781 9.37863281 2.15851562 8.63226562 2.17578125 7.86328125 C2.1933959 5.90805539 2.10320189 3.95257979 2 2 C1.34 1.34 0.68 0.68 0 0 Z M6 2 C6 4.31 6 6.62 6 9 C7.65 8.67 9.3 8.34 11 8 C11.33 6.35 11.66 4.7 12 3 C9.03 2.505 9.03 2.505 6 2 Z M6 10 C6 12.97 6 15.94 6 19 C9.43793339 18.81870185 9.43793339 18.81870185 13 18 C14.51294288 16.06402968 14.51294288 16.06402968 15 14 C14.34 13.01 13.68 12.02 13 11 C9.43230448 10.26393501 9.43230448 10.26393501 6 10 Z " fill="#513016" transform="translate(694,771)"/>
<path d="M0 0 C0.99 0 1.98 0 3 0 C3.25692627 0.50450684 3.51385254 1.00901367 3.77856445 1.52880859 C4.94855257 3.81506492 6.13035073 6.09500977 7.3125 8.375 C7.71662109 9.1690625 8.12074219 9.963125 8.53710938 10.78125 C8.93349609 11.54179688 9.32988281 12.30234375 9.73828125 13.0859375 C10.28029175 14.1385376 10.28029175 14.1385376 10.83325195 15.21240234 C12.0324233 17.30587224 12.0324233 17.30587224 15 19 C15 19.66 15 20.32 15 21 C12.03 21 9.06 21 6 21 C6.33 20.01 6.66 19.02 7 18 C6.67 16.68 6.34 15.36 6 14 C2.7 14 -0.6 14 -4 14 C-5.34513424 17.85938975 -5.34513424 17.85938975 -4 21 C-6.64 21 -9.28 21 -12 21 C-12 20.34 -12 19.68 -12 19 C-11.42765625 18.45859375 -10.8553125 17.9171875 -10.265625 17.359375 C-7.33858208 14.31121307 -5.65931857 10.9908501 -3.75 7.25 C-3.38648438 6.55261719 -3.02296875 5.85523438 -2.6484375 5.13671875 C-1.75893803 3.42794346 -0.87854133 1.71443502 0 0 Z M1 5 C-1.28692024 8.23764755 -1.28692024 8.23764755 -2 12 C-0.02 12 1.96 12 4 12 C3.34 9.69 2.68 7.38 2 5 C1.67 5 1.34 5 1 5 Z " fill="#4F2F16" transform="translate(472,771)"/>
<path d="M0 0 C3 1 3 1 4.11914062 2.65820312 C4.63250977 3.70911133 4.63250977 3.70911133 5.15625 4.78125 C5.53910156 5.54050781 5.92195313 6.29976562 6.31640625 7.08203125 C7.10546875 8.69401042 7.89453125 10.30598958 8.68359375 11.91796875 C9.06644531 12.67722656 9.44929688 13.43648437 9.84375 14.21875 C10.35711914 15.2696582 10.35711914 15.2696582 10.88085938 16.34179688 C11.97853028 18.33142241 11.97853028 18.33142241 15 19 C15 19.66 15 20.32 15 21 C12.03 21 9.06 21 6 21 C6 18.69 6 16.38 6 14 C4.3739713 14.06000106 2.74898451 14.1487885 1.125 14.25 C0.22007812 14.29640625 -0.68484375 14.3428125 -1.6171875 14.390625 C-4.17110544 14.75611148 -4.17110544 14.75611148 -5.3203125 17.046875 C-5.54460937 17.69140625 -5.76890625 18.3359375 -6 19 C-5.34 19 -4.68 19 -4 19 C-4 19.66 -4 20.32 -4 21 C-6.97 21 -9.94 21 -13 21 C-13 20.34 -13 19.68 -13 19 C-12.01 18.67 -11.02 18.34 -10 18 C-8.66348956 16.20253429 -8.66348956 16.20253429 -7.51953125 13.96484375 C-7.07802734 13.15595703 -6.63652344 12.34707031 -6.18164062 11.51367188 C-5.72982422 10.66353516 -5.27800781 9.81339844 -4.8125 8.9375 C-4.34908203 8.08349609 -3.88566406 7.22949219 -3.40820312 6.34960938 C-2.26363746 4.23747273 -1.12805116 2.12098933 0 0 Z M0 6 C-0.66 7.98 -1.32 9.96 -2 12 C-0.02 12 1.96 12 4 12 C3.34 10.02 2.68 8.04 2 6 C1.34 6 0.68 6 0 6 Z " fill="#4F2F16" transform="translate(398,771)"/>
<path d="M0 0 C3 1 3 1 4.11914062 2.65820312 C4.63250977 3.70911133 4.63250977 3.70911133 5.15625 4.78125 C5.53910156 5.54050781 5.92195312 6.29976562 6.31640625 7.08203125 C7.10546875 8.69401042 7.89453125 10.30598958 8.68359375 11.91796875 C9.06644531 12.67722656 9.44929687 13.43648437 9.84375 14.21875 C10.35711914 15.2696582 10.35711914 15.2696582 10.88085938 16.34179688 C11.97853028 18.33142241 11.97853028 18.33142241 15 19 C15 19.66 15 20.32 15 21 C12.03 21 9.06 21 6 21 C5.67 19.02 5.34 17.04 5 15 C2.03 15 -0.94 15 -4 15 C-4.33 16.98 -4.66 18.96 -5 21 C-7.64 21 -10.28 21 -13 21 C-13 20.34 -13 19.68 -13 19 C-12.01 18.67 -11.02 18.34 -10 18 C-8.66348956 16.20253429 -8.66348956 16.20253429 -7.51953125 13.96484375 C-7.07802734 13.15595703 -6.63652344 12.34707031 -6.18164062 11.51367188 C-5.72982422 10.66353516 -5.27800781 9.81339844 -4.8125 8.9375 C-4.34908203 8.08349609 -3.88566406 7.22949219 -3.40820312 6.34960938 C-2.26363746 4.23747273 -1.12805116 2.12098933 0 0 Z M0 5 C-1.485 8.465 -1.485 8.465 -3 12 C-0.69 12 1.62 12 4 12 C3.01 9.69 2.02 7.38 1 5 C0.67 5 0.34 5 0 5 Z " fill="#503016" transform="translate(797,771)"/>
<path d="M0 0 C3 1 3 1 4.11914062 2.65820312 C4.63250977 3.70911133 4.63250977 3.70911133 5.15625 4.78125 C5.53910156 5.54050781 5.92195312 6.29976562 6.31640625 7.08203125 C7.10546875 8.69401042 7.89453125 10.30598958 8.68359375 11.91796875 C9.06644531 12.67722656 9.44929687 13.43648437 9.84375 14.21875 C10.35711914 15.2696582 10.35711914 15.2696582 10.88085938 16.34179688 C11.97853028 18.33142241 11.97853028 18.33142241 15 19 C15 19.66 15 20.32 15 21 C12.03 21 9.06 21 6 21 C5.67 19.02 5.34 17.04 5 15 C2.03 15 -0.94 15 -4 15 C-4.33 16.98 -4.66 18.96 -5 21 C-7.64 21 -10.28 21 -13 21 C-13 20.34 -13 19.68 -13 19 C-12.01 18.67 -11.02 18.34 -10 18 C-8.66348956 16.20253429 -8.66348956 16.20253429 -7.51953125 13.96484375 C-7.07802734 13.15595703 -6.63652344 12.34707031 -6.18164062 11.51367188 C-5.72982422 10.66353516 -5.27800781 9.81339844 -4.8125 8.9375 C-4.34908203 8.08349609 -3.88566406 7.22949219 -3.40820312 6.34960938 C-2.26363746 4.23747273 -1.12805116 2.12098933 0 0 Z M0 5 C-1.485 8.465 -1.485 8.465 -3 12 C-0.69 12 1.62 12 4 12 C3.01 9.69 2.02 7.38 1 5 C0.67 5 0.34 5 0 5 Z " fill="#503016" transform="translate(733,771)"/>
<path d="M0 0 C3 1 3 1 4.11914062 2.65820312 C4.63250977 3.70911133 4.63250977 3.70911133 5.15625 4.78125 C5.53910156 5.54050781 5.92195312 6.29976562 6.31640625 7.08203125 C7.10546875 8.69401042 7.89453125 10.30598958 8.68359375 11.91796875 C9.06644531 12.67722656 9.44929687 13.43648437 9.84375 14.21875 C10.35711914 15.2696582 10.35711914 15.2696582 10.88085938 16.34179688 C11.97853028 18.33142241 11.97853028 18.33142241 15 19 C15 19.66 15 20.32 15 21 C12.03 21 9.06 21 6 21 C5.67 19.02 5.34 17.04 5 15 C2.03 15 -0.94 15 -4 15 C-4.66 16.32 -5.32 17.64 -6 19 C-5.34 19 -4.68 19 -4 19 C-4 19.66 -4 20.32 -4 21 C-6.97 21 -9.94 21 -13 21 C-13 20.34 -13 19.68 -13 19 C-12.01 18.67 -11.02 18.34 -10 18 C-8.66348956 16.20253429 -8.66348956 16.20253429 -7.51953125 13.96484375 C-7.07802734 13.15595703 -6.63652344 12.34707031 -6.18164062 11.51367188 C-5.72982422 10.66353516 -5.27800781 9.81339844 -4.8125 8.9375 C-4.34908203 8.08349609 -3.88566406 7.22949219 -3.40820312 6.34960938 C-2.26363746 4.23747273 -1.12805116 2.12098933 0 0 Z M0 6 C-0.99 7.98 -1.98 9.96 -3 12 C-0.69 12 1.62 12 4 12 C3.34 10.02 2.68 8.04 2 6 C1.34 6 0.68 6 0 6 Z " fill="#4F2F16" transform="translate(541,771)"/>
<path d="M0 0 C0.33 0 0.66 0 1 0 C0.51102452 4.98754995 -0.38590282 9.63979692 -1.625 14.5 C-2.90365481 19.80610862 -3.14644871 23.68464691 -2 29 C1.12197478 27.6910428 1.12197478 27.6910428 3 25 C3.66 25 4.32 25 5 25 C4.51522843 32.3927665 4.51522843 32.3927665 2.25 35.0625 C-0.67059169 36.2794132 -2.06710098 36.1577233 -5 35 C-8.17314758 30.14111777 -7.52389723 24.56088507 -7 19 C-5.56073371 12.24324743 -3.93072407 5.76147227 0 0 Z " fill="#673E17" transform="translate(458,697)"/>
<path d="M0 0 C0.66 0 1.32 0 2 0 C1.37442914 5.5050236 0.08807674 10.69365361 -1.37890625 16.03515625 C-2.02865662 19.13679481 -2.21123586 21.84045083 -2 25 C-0.62493901 26.87890434 -0.62493901 26.87890434 1 28 C1.45375 27.34 1.9075 26.68 2.375 26 C2.91125 25.34 3.4475 24.68 4 24 C4.66 24 5.32 24 6 24 C5.39622642 31.36603774 5.39622642 31.36603774 3.75 34 C1.2808869 35.41092177 -0.20594698 35.48895928 -3 35 C-5.2290894 32.74424685 -5.95071301 31.34790815 -6.3984375 28.1875 C-6.32529241 18.23976835 -5.08187824 8.71179127 0 0 Z " fill="#7A4918" transform="translate(521,650)"/>
<path d="M0 0 C2.97 0 5.94 0 9 0 C8.34 0.66 7.68 1.32 7 2 C6.64146336 4.75950354 6.64146336 4.75950354 6.6875 7.875 C6.67074219 8.92429687 6.65398438 9.97359375 6.63671875 11.0546875 C7.04160379 14.33730386 7.63639958 15.71246948 10 18 C14.57343602 18.60276247 14.57343602 18.60276247 18.703125 16.8828125 C20.63044658 14.08471309 20.32494865 11.7914523 20.25 8.4375 C20.23453125 7.28121094 20.2190625 6.12492188 20.203125 4.93359375 C20.19343773 2.06657357 20.19343773 2.06657357 19 0 C21.31 0 23.62 0 26 0 C25.67 0.66 25.34 1.32 25 2 C24.72182073 5.27633366 24.55308189 8.55254147 24.37890625 11.8359375 C24.02130048 14.82213003 23.72688572 16.56792301 22 19 C17.95238644 21.6955566 13.69800909 21.56945565 9 21 C6.58130422 19.8410416 4.87677904 18.87677904 3 17 C2.76340471 13.81910775 2.60374385 10.64590563 2.48242188 7.45898438 C2.39125865 3.27511917 2.39125865 3.27511917 0 0 Z " fill="#513016" transform="translate(658,771)"/>
<path d="M0 0 C0.66 0 1.32 0 2 0 C2 0.99 2 1.98 2 3 C3.010625 3.721875 4.02125 4.44375 5.0625 5.1875 C7.0882158 6.76305673 7.90939787 7.42842361 8.31640625 9.99609375 C8.01723764 13.32358136 7.45724911 15.41964536 5.375 18.0625 C2.0138415 19.38927309 -0.525796 18.73492777 -4 18 C-5.59166863 12.35681123 -4.25395598 8.2128938 -2 3 C-1.34 2.01 -0.68 1.02 0 0 Z M-1 9 C-1 10.32 -1 11.64 -1 13 C0.65 12.67 2.3 12.34 4 12 C3.34 11.01 2.68 10.02 2 9 C1.01 9 0.02 9 -1 9 Z " fill="#814D18" transform="translate(583,641)"/>
<path d="M0 0 C0.66 0 1.32 0 2 0 C2.061875 0.5775 2.12375 1.155 2.1875 1.75 C2.85797708 4.26230742 2.85797708 4.26230742 5.5625 5.875 C8 8 8 8 8.5625 10.9375 C7.85637189 14.78197528 6.95156784 16.4268383 4 19 C0.25 19.3125 0.25 19.3125 -3 19 C-4.96437467 14.96786251 -5.13161795 12.53360128 -3.75 8.375 C-2.67407079 5.48217146 -1.41456928 2.74227905 0 0 Z M-1 9 C-1 10.32 -1 11.64 -1 13 C0.65 12.67 2.3 12.34 4 12 C2.62514468 10.45833358 2.62514468 10.45833358 1 9 C0.34 9 -0.32 9 -1 9 Z " fill="#895219" transform="translate(697,623)"/>
<path d="M0 0 C0.66 0.33 1.32 0.66 2 1 C2 1.66 2 2.32 2 3 C3.010625 3.70125 4.02125 4.4025 5.0625 5.125 C7.06864646 6.72231092 7.90242525 7.44490809 8.3515625 10 C8.06579422 13.70137962 7.5559434 15.47582479 4.8125 18.0625 C1.45794496 19.18068501 -0.60846163 18.86760284 -4 18 C-5.71341852 11.43189566 -3.96168185 6.99224003 -1 1 C-0.67 0.67 -0.34 0.34 0 0 Z M-1 9 C-1 10.32 -1 11.64 -1 13 C0.65 12.67 2.3 12.34 4 12 C3.34 11.01 2.68 10.02 2 9 C1.01 9 0.02 9 -1 9 Z " fill="#CD7B1C" transform="translate(640,446)"/>
<path d="M0 0 C0.66 0 1.32 0 2 0 C1.67 1.32 1.34 2.64 1 4 C1.78375 4.268125 2.5675 4.53625 3.375 4.8125 C6 6 6 6 8 9 C7.81989972 12.36187193 7.58112046 14.99918142 5.875 17.9375 C2.86922556 19.64077218 0.36489733 19.36707971 -3 19 C-5.2577471 15.61337935 -5.14884938 14.1347817 -4.55859375 10.20703125 C-3.62412927 6.51491636 -1.88177164 3.29091226 0 0 Z M-1 9 C-0.67 10.65 -0.34 12.3 0 14 C1.32 13.34 2.64 12.68 4 12 C2.62514468 10.45833358 2.62514468 10.45833358 1 9 C0.34 9 -0.32 9 -1 9 Z " fill="#965919" transform="translate(508,588)"/>
<path d="M0 0 C0.0825 0.61875 0.165 1.2375 0.25 1.875 C0.79278299 4.15354435 0.79278299 4.15354435 2.875 5.0625 C3.926875 5.5265625 3.926875 5.5265625 5 6 C6.8125 7.1875 6.8125 7.1875 8 9 C7.87844565 12.40352169 7.59933376 14.96781407 5.875 17.9375 C2.90174077 19.6223469 0.33330906 19.3030281 -3 19 C-5 17 -5 17 -5.1171875 14.86328125 C-4.55026781 8.89233678 -3.35777764 4.98250875 0 0 Z M-1 9 C-1.33 10.32 -1.66 11.64 -2 13 C-1.01 13.495 -1.01 13.495 0 14 C2.11683841 13.10836423 2.11683841 13.10836423 4 12 C2.62514468 10.45833358 2.62514468 10.45833358 1 9 C0.34 9 -0.32 9 -1 9 Z " fill="#945819" transform="translate(390,591)"/>
<path d="M0 0 C0.66 0 1.32 0 2 0 C2.226875 0.556875 2.45375 1.11375 2.6875 1.6875 C3.96297772 4.22639615 3.96297772 4.22639615 6.6875 6.375 C9 9 9 9 8.9375 12.125 C8 15 8 15 6 18 C2.5625 18.875 2.5625 18.875 -1 19 C-2.73046875 17.7734375 -2.73046875 17.7734375 -4 16 C-4.50994954 10.27969645 -2.46827044 5.04385699 0 0 Z M0 8 C-0.33 9.32 -0.66 10.64 -1 12 C0.89179203 12.6814823 0.89179203 12.6814823 3 13 C3.66 12.34 4.32 11.68 5 11 C3.35 10.01 1.7 9.02 0 8 Z " fill="#CF7C1C" transform="translate(396,437)"/>
<path d="M0 0 C0.66 0 1.32 0 2 0 C2 1.32 2 2.64 2 4 C2.804375 4.28875 3.60875 4.5775 4.4375 4.875 C7 6 7 6 8 8 C8.35872645 11.87424565 8.56710729 14.14933906 6.375 17.4375 C3.34990088 19.42769679 1.55600891 19.46382725 -2 19 C-4 17 -4 17 -4.375 13.4375 C-4.28286545 8.41616683 -2.27744636 4.39221798 0 0 Z M0 8 C-0.33 9.65 -0.66 11.3 -1 13 C0.98 12.67 2.96 12.34 5 12 C3.35 10.68 1.7 9.36 0 8 Z " fill="#7A4918" transform="translate(417,658)"/>
<path d="M0 0 C0.66 0 1.32 0 2 0 C2.061875 0.5775 2.12375 1.155 2.1875 1.75 C2.85797708 4.26230742 2.85797708 4.26230742 5.5625 5.875 C8 8 8 8 8.5625 10.9375 C7.85637189 14.78197528 6.95156784 16.4268383 4 19 C0.3125 19.375 0.3125 19.375 -3 19 C-4.61253453 17.38746547 -4.24791423 15.66400957 -4.3125 13.4375 C-4.2889335 7.97792849 -2.75855521 4.65506192 0 0 Z M0 9 C-0.33 10.32 -0.66 11.64 -1 13 C0.65 12.67 2.3 12.34 4 12 C3.02149805 10.97895449 2.02019573 9.9793879 1 9 C0.67 9 0.34 9 0 9 Z " fill="#915719" transform="translate(621,600)"/>
<path d="M0 0 C0.66 0.66 1.32 1.32 2 2 C1.67 2.66 1.34 3.32 1 4 C1.598125 4.268125 2.19625 4.53625 2.8125 4.8125 C6.60550459 6.87155963 6.60550459 6.87155963 8 9 C7.87844565 12.40352169 7.59933376 14.96781407 5.875 17.9375 C2.86922556 19.64077218 0.36489733 19.36707971 -3 19 C-5.2577471 15.61337935 -5.14884938 14.1347817 -4.55859375 10.20703125 C-3.62412927 6.51491636 -1.88177164 3.29091226 0 0 Z M0 9 C-0.33 10.65 -0.66 12.3 -1 14 C0.65 13.67 2.3 13.34 4 13 C2.68 11.68 1.36 10.36 0 9 Z " fill="#693F17" transform="translate(713,706)"/>
<path d="M0 0 C0.66 0 1.32 0 2 0 C2 0.99 2 1.98 2 3 C2.99 3.763125 3.98 4.52625 5 5.3125 C7.57823813 7.3360817 7.93750242 7.65973542 8.5625 11.0625 C7.93049128 14.36298997 7.53866334 15.78890612 5 18 C1.4375 18.875 1.4375 18.875 -2 19 C-4.35020498 16.64979502 -4.31914802 16.08090378 -4.375 12.875 C-4.2916181 7.73033653 -2.56194473 4.4033425 0 0 Z M-1 9 C-1 10.32 -1 11.64 -1 13 C0.65 12.67 2.3 12.34 4 12 C3.34 11.01 2.68 10.02 2 9 C1.01 9 0.02 9 -1 9 Z " fill="#885119" transform="translate(318,622)"/>
<path d="M0 0 C0.66 0 1.32 0 2 0 C2.061875 0.556875 2.12375 1.11375 2.1875 1.6875 C2.89341086 4.2716923 2.89341086 4.2716923 5.5625 6.375 C8 9 8 9 8.5625 12.0625 C8 15 8 15 6.4375 17.375 C3.15988698 19.56007535 0.85797355 19.36395977 -3 19 C-4.61253453 17.38746547 -4.24791423 15.66400957 -4.3125 13.4375 C-4.2889335 7.97792849 -2.75855521 4.65506192 0 0 Z M0 9 C-0.33 10.65 -0.66 12.3 -1 14 C0.65 13.67 2.3 13.34 4 13 C4 12.34 4 11.68 4 11 C2.68 10.34 1.36 9.68 0 9 Z " fill="#AF691A" transform="translate(820,524)"/>
<path d="M0 0 C0.66 0 1.32 0 2 0 C2.33 0.99 2.66 1.98 3 3 C3.845625 3.556875 4.69125 4.11375 5.5625 4.6875 C8.23015465 7.21835185 8.39215414 7.59874479 8.5 11.0625 C8 15 8 15 6.875 16.9375 C4.20726955 18.44921392 2.05709846 18.8726209 -1 19 C-2.875 18 -2.875 18 -4 16 C-4.8659886 9.81436712 -2.73178387 5.3781995 0 0 Z M0 8 C-0.33 9.32 -0.66 10.64 -1 12 C-0.01 12.33 0.98 12.66 2 13 C2.99 12.34 3.98 11.68 5 11 C3.35 10.01 1.7 9.02 0 8 Z " fill="#CA791C" transform="translate(841,455)"/>
<path d="M0 0 C0.66 0 1.32 0 2 0 C2.33 0.99 2.66 1.98 3 3 C4.03125 3.7425 5.0625 4.485 6.125 5.25 C7.07375 6.1575 8.0225 7.065 9 8 C9.06161262 11.57353215 8.6533452 13.80860582 6.9375 16.9375 C3.72427107 18.69959328 0.6157826 18.17782537 -3 18 C-4.73986737 14.52026527 -3.70995561 10.72574998 -3 7 C-2.15577574 4.54326273 -1.14533119 2.34045938 0 0 Z M0 8 C-0.33 9.32 -0.66 10.64 -1 12 C-0.01 12.33 0.98 12.66 2 13 C2.99 12.34 3.98 11.68 5 11 C3.35 10.01 1.7 9.02 0 8 Z " fill="#B56C1B" transform="translate(391,507)"/>
<path d="M0 0 C0.66 0 1.32 0 2 0 C2.2475 0.5775 2.495 1.155 2.75 1.75 C3.90771209 4.12906027 3.90771209 4.12906027 6.125 5.875 C8 8 8 8 8.4375 11 C7.94705668 14.36303993 7.52224843 15.72997641 5 18 C2 18.875 2 18.875 -1 19 C-4 17 -4 17 -4.43359375 15.1171875 C-4.44419518 9.03196585 -3.05936774 5.2582883 0 0 Z M0 8 C-0.33 9.65 -0.66 11.3 -1 13 C0.65 12.67 2.3 12.34 4 12 C2.68 10.68 1.36 9.36 0 8 Z " fill="#BC701B" transform="translate(502,489)"/>
<path d="M0 0 C0.27585937 0.62390625 0.55171875 1.2478125 0.8359375 1.890625 C1.91994835 4.23762664 1.91994835 4.23762664 4.625 5.75 C7.24783341 8.23478954 7.38758813 8.64642807 7.5 12.0625 C7 16 7 16 6 18 C2.72032242 19.63983879 -0.37138689 19.17845638 -4 19 C-5.5107487 15.9785026 -5.55699908 13.2649627 -5 10 C-3.55805467 6.53630616 -1.84056753 3.26700737 0 0 Z M-1 9 C-1.33 10.32 -1.66 11.64 -2 13 C-1.01 13.33 -0.02 13.66 1 14 C1.66 13.67 2.32 13.34 3 13 C2.67 12.01 2.34 11.02 2 10 C1.01 9.67 0.02 9.34 -1 9 Z " fill="#653C17" transform="translate(652,715)"/>
<path d="M0 0 C0.27585937 0.62390625 0.55171875 1.2478125 0.8359375 1.890625 C1.91994835 4.23762664 1.91994835 4.23762664 4.625 5.75 C7.24783341 8.23478954 7.38758813 8.64642807 7.5 12.0625 C7 16 7 16 6 18 C2.72032242 19.63983879 -0.37138689 19.17845638 -4 19 C-5.5107487 15.9785026 -5.55699908 13.2649627 -5 10 C-3.55805467 6.53630616 -1.84056753 3.26700737 0 0 Z M-1 9 C-1.33 10.32 -1.66 11.64 -2 13 C-1.01 13.33 -0.02 13.66 1 14 C1.66 13.67 2.32 13.34 3 13 C2.67 12.01 2.34 11.02 2 10 C1.01 9.67 0.02 9.34 -1 9 Z " fill="#6B4017" transform="translate(377,697)"/>
<path d="M0 0 C0.66 0 1.32 0 2 0 C2.33 0.99 2.66 1.98 3 3 C4.2375 3.9590625 4.2375 3.9590625 5.5 4.9375 C8 7 8 7 8.9375 8.9375 C9.02166304 11.7148803 8.23460039 13.53079922 7 16 C5 18 5 18 3.0546875 18.1953125 C1.03645833 18.13020833 -0.98177083 18.06510417 -3 18 C-4.56929255 14.8614149 -4.27716493 12.49227809 -4 9 C-2.87030011 5.89209201 -1.49676225 2.94675067 0 0 Z M0 8 C-0.33 9.32 -0.66 10.64 -1 12 C-0.01 12.33 0.98 12.66 2 13 C2.99 12.34 3.98 11.68 5 11 C3.35 10.01 1.7 9.02 0 8 Z " fill="#AF691A" transform="translate(732,524)"/>
<path d="M0 0 C0.12503906 0.63679687 0.25007812 1.27359375 0.37890625 1.9296875 C0.79576134 4.17676551 0.79576134 4.17676551 2.9375 5.125 C3.618125 5.41375 4.29875 5.7025 5 6 C7 8 7 8 7.375 11.9375 C7.29081697 14.8365531 7.24906476 15.69345876 5.375 18 C2.38358852 19.25954167 0.21567216 19.34952958 -3 19 C-5 17 -5 17 -5.4375 14 C-5.33834905 8.78906661 -2.49765649 4.43334027 0 0 Z M-1 9 C-1.33 10.32 -1.66 11.64 -2 13 C-1.01 13.495 -1.01 13.495 0 14 C0.99 13.67 1.98 13.34 3 13 C2.34 11.68 1.68 10.36 1 9 C0.34 9 -0.32 9 -1 9 Z " fill="#7B4918" transform="translate(815,661)"/>
</svg>
